NotoSansThaiUI-CondensedLight.ufo
<glyph name="uni02BC" format="2">
  <advance width="133"/>
  <unicode hex="02BC"/>
  <outline>
    <contour>
      <point x="100" y="714" type="line"/>
      <point x="72" y="714" type="line"/>
      <point x="61" y="642"/>
      <point x="44" y="578"/>
      <point x="20" y="495" type="curve"/>
      <point x="41" y="495" type="line"/>
      <point x="71" y="567"/>
      <point x="90" y="636"/>
      <point x="107" y="703" type="curve"/>
    </contour>
  </outline>
</glyph>
<glyph name="uni02D7" format="2">
  <advance width="170"/>
  <unicode hex="02D7"/>
  <outline>
    <contour>
      <point x="158" y="258" type="line"/>
      <point x="158" y="294" type="line"/>
      <point x="12" y="294" type="line"/>
      <point x="12" y="258" type="line"/>
    </contour>
  </outline>
</glyph>
<glyph name="tildecomb" format="2">
  <unicode hex="0303"/>
  <anchor x="-108" y="511" name="_top"/>
  <outline>
    <contour>
      <point x="-120" y="706" type="curve"/>
      <point x="-142" y="706" type="line"/>
      <point x="-145" y="664"/>
      <point x="-162" y="640"/>
      <point x="-188" y="640" type="curve" smooth="yes"/>
      <point x="-231" y="640"/>
      <point x="-253" y="705"/>
      <point x="-306" y="705" type="curve" smooth="yes"/>
      <point x="-340" y="705"/>
      <point x="-368" y="680"/>
      <point x="-373" y="617" type="curve"/>
      <point x="-350" y="617" type="line"/>
      <point x="-347" y="662"/>
      <point x="-328" y="682"/>
      <point x="-306" y="682" type="curve" smooth="yes"/>
      <point x="-265" y="682"/>
      <point x="-241" y="617"/>
      <point x="-188" y="617" type="curve" smooth="yes"/>
      <point x="-152" y="617"/>
      <point x="-121" y="645"/>
    </contour>
  </outline>
</glyph>
<glyph name="macronbelowcomb" format="2">
  <unicode hex="0331"/>
  <anchor x="-73" y="0" name="_bottom"/>
  <outline>
    <contour>
      <point x="-120" y="-99" type="line"/>
      <point x="-317" y="-99" type="line"/>
      <point x="-317" y="-123" type="line"/>
      <point x="-120" y="-123" type="line"/>
    </contour>
  </outline>
</glyph>
<glyph name="koKai-thai" format="2">
  <advance width="409"/>
  <unicode hex="0E01"/>
  <note>
uni0E01
</note>
  <anchor x="345" y="0" name="bottom"/>
  <anchor x="338" y="506" name="top"/>
  <outline>
    <contour>
      <point x="60" y="0" type="line"/>
      <point x="86" y="0" type="line"/>
      <point x="86" y="200" type="line" smooth="yes"/>
      <point x="86" y="268"/>
      <point x="119" y="295"/>
      <point x="155" y="300" type="curve"/>
      <point x="160" y="330" type="line"/>
      <point x="81" y="378" type="line"/>
      <point x="81" y="446"/>
      <point x="126" y="500"/>
      <point x="200" y="500" type="curve" smooth="yes"/>
      <point x="270" y="500"/>
      <point x="319" y="450"/>
      <point x="319" y="347" type="curve" smooth="yes"/>
      <point x="319" y="0" type="line"/>
      <point x="345" y="0" type="line"/>
      <point x="345" y="353" type="line" smooth="yes"/>
      <point x="345" y="464"/>
      <point x="283" y="525"/>
      <point x="200" y="525" type="curve" smooth="yes"/>
      <point x="107" y="525"/>
      <point x="54" y="454"/>
      <point x="54" y="381" type="curve" smooth="yes"/>
      <point x="54" y="363" type="line"/>
      <point x="134" y="320" type="line"/>
      <point x="133" y="318" type="line"/>
      <point x="94" y="305"/>
      <point x="60" y="275"/>
      <point x="60" y="200" type="curve" smooth="yes"/>
    </contour>
  </outline>
</glyph>
<glyph name="khoKhai-thai" format="2">
  <advance width="376"/>
  <unicode hex="0E02"/>
  <note>
uni0E02
</note>
  <anchor x="298" y="0" name="bottom"/>
  <anchor x="312" y="506" name="top"/>
  <outline>
    <contour>
      <point x="187" y="-9" type="curve" smooth="yes"/>
      <point x="267" y="-9"/>
      <point x="312" y="44"/>
      <point x="312" y="138" type="curve" smooth="yes"/>
      <point x="312" y="517" type="line"/>
      <point x="286" y="517" type="line"/>
      <point x="286" y="139" type="line" smooth="yes"/>
      <point x="286" y="64"/>
      <point x="254" y="15"/>
      <point x="187" y="15" type="curve" smooth="yes"/>
      <point x="127" y="15"/>
      <point x="87" y="55"/>
      <point x="87" y="150" type="curve" smooth="yes"/>
      <point x="87" y="229" type="line" smooth="yes"/>
      <point x="87" y="280"/>
      <point x="99" y="305"/>
      <point x="120" y="341" type="curve" smooth="yes"/>
      <point x="140" y="376"/>
      <point x="158" y="405"/>
      <point x="158" y="449" type="curve" smooth="yes"/>
      <point x="158" y="506"/>
      <point x="130" y="523"/>
      <point x="98" y="523" type="curve" smooth="yes"/>
      <point x="79" y="523"/>
      <point x="59" y="515"/>
      <point x="45" y="505" type="curve"/>
      <point x="52" y="482" type="line"/>
      <point x="61" y="488"/>
      <point x="79" y="498"/>
      <point x="96" y="498" type="curve" smooth="yes"/>
      <point x="114" y="498"/>
      <point x="132" y="488"/>
      <point x="132" y="447" type="curve" smooth="yes"/>
      <point x="132" y="414"/>
      <point x="119" y="391"/>
      <point x="98" y="355" type="curve" smooth="yes"/>
      <point x="76" y="318"/>
      <point x="61" y="290"/>
      <point x="61" y="228" type="curve" smooth="yes"/>
      <point x="61" y="149" type="line" smooth="yes"/>
      <point x="61" y="39"/>
      <point x="110" y="-9"/>
    </contour>
  </outline>
</glyph>
<glyph name="khoKhuat-thai" format="2">
  <advance width="375"/>
  <unicode hex="0E03"/>
  <anchor x="297" y="0" name="bottom"/>
  <anchor x="311" y="506" name="top"/>
  <outline>
    <contour>
      <point x="183" y="-9" type="curve" smooth="yes"/>
      <point x="264" y="-9"/>
      <point x="311" y="44"/>
      <point x="311" y="138" type="curve" smooth="yes"/>
      <point x="311" y="517" type="line"/>
      <point x="285" y="517" type="line"/>
      <point x="285" y="139" type="line" smooth="yes"/>
      <point x="285" y="64"/>
      <point x="251" y="15"/>
      <point x="184" y="15" type="curve" smooth="yes"/>
      <point x="125" y="15"/>
      <point x="84" y="53"/>
      <point x="84" y="150" type="curve" smooth="yes"/>
      <point x="84" y="225" type="line" smooth="yes"/>
      <point x="84" y="279"/>
      <point x="102" y="309"/>
      <point x="126" y="346" type="curve" smooth="yes"/>
      <point x="153" y="388"/>
      <point x="161" y="400"/>
      <point x="161" y="460" type="curve" smooth="yes"/>
      <point x="161" y="517" type="line"/>
      <point x="144" y="517" type="line"/>
      <point x="137" y="468" type="line"/>
      <point x="124" y="449"/>
      <point x="111" y="445"/>
      <point x="99" y="445" type="curve" smooth="yes"/>
      <point x="74" y="445"/>
      <point x="63" y="460"/>
      <point x="63" y="517" type="curve"/>
      <point x="39" y="517" type="line"/>
      <point x="39" y="498" type="line" smooth="yes"/>
      <point x="39" y="446"/>
      <point x="61" y="423"/>
      <point x="91" y="423" type="curve" smooth="yes"/>
      <point x="112" y="423"/>
      <point x="126" y="435"/>
      <point x="135" y="448" type="curve"/>
      <point x="137" y="447" type="line"/>
      <point x="137" y="413"/>
      <point x="129" y="400"/>
      <point x="104" y="359" type="curve" smooth="yes"/>
      <point x="82" y="322"/>
      <point x="58" y="286"/>
      <point x="58" y="229" type="curve" smooth="yes"/>
      <point x="58" y="149" type="line" smooth="yes"/>
      <point x="58" y="39"/>
      <point x="105" y="-9"/>
    </contour>
  </outline>
</glyph>
<glyph name="khoKhwai-thai" format="2">
  <advance width="423"/>
  <unicode hex="0E04"/>
  <note>
uni0E04
</note>
  <anchor x="359" y="0" name="bottom"/>
  <anchor x="352" y="506" name="top"/>
  <outline>
    <contour>
      <point x="64" y="0" type="line"/>
      <point x="90" y="0" type="line"/>
      <point x="90" y="128" type="line" smooth="yes"/>
      <point x="90" y="208"/>
      <point x="130" y="255"/>
      <point x="201" y="255" type="curve" smooth="yes"/>
      <point x="235" y="255" type="line"/>
      <point x="235" y="279" type="line"/>
      <point x="200" y="279" type="line" smooth="yes"/>
      <point x="143" y="279"/>
      <point x="111" y="250"/>
      <point x="92" y="215" type="curve"/>
      <point x="90" y="216" type="line"/>
      <point x="90" y="346" type="line" smooth="yes"/>
      <point x="90" y="447"/>
      <point x="136" y="500"/>
      <point x="212" y="500" type="curve" smooth="yes"/>
      <point x="288" y="500"/>
      <point x="333" y="447"/>
      <point x="333" y="346" type="curve" smooth="yes"/>
      <point x="333" y="0" type="line"/>
      <point x="359" y="0" type="line"/>
      <point x="359" y="348" type="line" smooth="yes"/>
      <point x="359" y="461"/>
      <point x="305" y="525"/>
      <point x="212" y="525" type="curve" smooth="yes"/>
      <point x="118" y="525"/>
      <point x="64" y="461"/>
      <point x="64" y="348" type="curve" smooth="yes"/>
    </contour>
  </outline>
</glyph>
<glyph name="khoKhon-thai" format="2">
  <advance width="428"/>
  <unicode hex="0E05"/>
  <anchor x="364" y="0" name="bottom"/>
  <anchor x="357" y="506" name="top"/>
  <outline>
    <contour>
      <point x="64" y="0" type="line"/>
      <point x="90" y="0" type="line"/>
      <point x="90" y="128" type="line" smooth="yes"/>
      <point x="90" y="208"/>
      <point x="132" y="255"/>
      <point x="203" y="255" type="curve" smooth="yes"/>
      <point x="236" y="255" type="line"/>
      <point x="236" y="279" type="line"/>
      <point x="201" y="279" type="line" smooth="yes"/>
      <point x="144" y="279"/>
      <point x="111" y="250"/>
      <point x="92" y="215" type="curve"/>
      <point x="90" y="216" type="line"/>
      <point x="90" y="405" type="line" smooth="yes"/>
      <point x="90" y="473"/>
      <point x="114" y="500"/>
      <point x="146" y="500" type="curve" smooth="yes"/>
      <point x="178" y="500"/>
      <point x="200" y="473"/>
      <point x="203" y="432" type="curve"/>
      <point x="224" y="432" type="line"/>
      <point x="228" y="473"/>
      <point x="249" y="500"/>
      <point x="281" y="500" type="curve" smooth="yes"/>
      <point x="313" y="500"/>
      <point x="338" y="473"/>
      <point x="338" y="405" type="curve" smooth="yes"/>
      <point x="338" y="0" type="line"/>
      <point x="364" y="0" type="line"/>
      <point x="364" y="407" type="line" smooth="yes"/>
      <point x="364" y="489"/>
      <point x="331" y="525"/>
      <point x="284" y="525" type="curve" smooth="yes"/>
      <point x="249" y="525"/>
      <point x="222" y="503"/>
      <point x="215" y="469" type="curve"/>
      <point x="212" y="469" type="line"/>
      <point x="205" y="503"/>
      <point x="179" y="525"/>
      <point x="144" y="525" type="curve" smooth="yes"/>
      <point x="96" y="525"/>
      <point x="64" y="489"/>
      <point x="64" y="407" type="curve" smooth="yes"/>
    </contour>
  </outline>
</glyph>
<glyph name="khoRakhang-thai" format="2">
  <advance width="412"/>
  <unicode hex="0E06"/>
  <anchor x="334" y="0" name="bottom"/>
  <anchor x="348" y="506" name="top"/>
  <outline>
    <contour>
      <point x="220" y="-9" type="curve" smooth="yes"/>
      <point x="294" y="-9"/>
      <point x="348" y="43"/>
      <point x="348" y="156" type="curve" smooth="yes"/>
      <point x="348" y="517" type="line"/>
      <point x="322" y="517" type="line"/>
      <point x="322" y="159" type="line" smooth="yes"/>
      <point x="322" y="65"/>
      <point x="283" y="15"/>
      <point x="218" y="15" type="curve" smooth="yes"/>
      <point x="137" y="15"/>
      <point x="84" y="93"/>
      <point x="84" y="195" type="curve" smooth="yes"/>
      <point x="84" y="222" type="line" smooth="yes"/>
      <point x="84" y="276"/>
      <point x="102" y="305"/>
      <point x="127" y="346" type="curve" smooth="yes"/>
      <point x="153" y="389"/>
      <point x="164" y="405"/>
      <point x="164" y="460" type="curve" smooth="yes"/>
      <point x="164" y="517" type="line"/>
      <point x="147" y="517" type="line"/>
      <point x="140" y="468" type="line"/>
      <point x="127" y="449"/>
      <point x="114" y="445"/>
      <point x="102" y="445" type="curve" smooth="yes"/>
      <point x="77" y="445"/>
      <point x="66" y="460"/>
      <point x="66" y="517" type="curve"/>
      <point x="42" y="517" type="line"/>
      <point x="42" y="498" type="line" smooth="yes"/>
      <point x="42" y="446"/>
      <point x="64" y="423"/>
      <point x="94" y="423" type="curve" smooth="yes"/>
      <point x="115" y="423"/>
      <point x="129" y="435"/>
      <point x="138" y="448" type="curve"/>
      <point x="140" y="447" type="line"/>
      <point x="140" y="414"/>
      <point x="132" y="401"/>
      <point x="105" y="359" type="curve" smooth="yes"/>
      <point x="82" y="322"/>
      <point x="58" y="282"/>
      <point x="58" y="225" type="curve" smooth="yes"/>
      <point x="58" y="0" type="line"/>
      <point x="81" y="0" type="line"/>
      <point x="84" y="89" type="line"/>
      <point x="86" y="89" type="line"/>
      <point x="109" y="35"/>
      <point x="153" y="-9"/>
    </contour>
  </outline>
</glyph>
<glyph name="ngoNgu-thai" format="2">
  <advance width="375"/>
  <unicode hex="0E07"/>
  <note>
uni0E07
</note>
  <anchor x="254" y="0" name="bottom"/>
  <anchor x="305" y="506" name="top"/>
  <outline>
    <contour>
      <point x="135" y="0" type="line"/>
      <point x="157" y="0" type="line" smooth="yes"/>
      <point x="204" y="0"/>
      <point x="241" y="18"/>
      <point x="267" y="48" type="curve" smooth="yes"/>
      <point x="308" y="96"/>
      <point x="329" y="178"/>
      <point x="329" y="281" type="curve" smooth="yes"/>
      <point x="329" y="354"/>
      <point x="319" y="419"/>
      <point x="292" y="462" type="curve" smooth="yes"/>
      <point x="268" y="500"/>
      <point x="234" y="522"/>
      <point x="187" y="522" type="curve" smooth="yes"/>
      <point x="176" y="522"/>
      <point x="158" y="520"/>
      <point x="146" y="514" type="curve"/>
      <point x="153" y="490" type="line"/>
      <point x="160" y="493"/>
      <point x="175" y="497"/>
      <point x="186" y="497" type="curve" smooth="yes"/>
      <point x="262" y="497"/>
      <point x="303" y="419"/>
      <point x="303" y="284" type="curve" smooth="yes"/>
      <point x="303" y="191"/>
      <point x="284" y="109"/>
      <point x="248" y="67" type="curve" smooth="yes"/>
      <point x="225" y="40"/>
      <point x="198" y="25"/>
      <point x="166" y="25" type="curve" smooth="yes"/>
      <point x="155" y="25" type="line"/>
      <point x="44" y="517" type="line"/>
      <point x="17" y="517" type="line"/>
    </contour>
  </outline>
</glyph>
<glyph name="choChan-thai" format="2">
  <advance width="365"/>
  <unicode hex="0E08"/>
  <anchor x="277" y="0" name="bottom"/>
  <anchor x="304" y="506" name="top"/>
  <outline>
    <contour>
      <point x="117" y="0" type="line"/>
      <point x="144" y="0" type="line" smooth="yes"/>
      <point x="258" y="0"/>
      <point x="314" y="68"/>
      <point x="314" y="259" type="curve" smooth="yes"/>
      <point x="314" y="443"/>
      <point x="272" y="525"/>
      <point x="158" y="525" type="curve" smooth="yes"/>
      <point x="107" y="525"/>
      <point x="61" y="501"/>
      <point x="34" y="482" type="curve"/>
      <point x="34" y="454" type="line"/>
      <point x="71" y="482"/>
      <point x="111" y="500"/>
      <point x="153" y="500" type="curve" smooth="yes"/>
      <point x="249" y="500"/>
      <point x="287" y="437"/>
      <point x="287" y="260" type="curve" smooth="yes"/>
      <point x="287" y="78"/>
      <point x="232" y="25"/>
      <point x="153" y="25" type="curve" smooth="yes"/>
      <point x="143" y="25" type="line"/>
      <point x="143" y="283" type="line"/>
      <point x="65" y="283" type="line"/>
      <point x="65" y="261" type="line"/>
      <point x="117" y="261" type="line"/>
    </contour>
  </outline>
</glyph>
<glyph name="choChing-thai" format="2">
  <advance width="418"/>
  <unicode hex="0E09"/>
  <anchor x="354" y="0" name="bottom"/>
  <anchor x="347" y="506" name="top"/>
  <outline>
    <contour>
      <point x="194" y="-9" type="curve" smooth="yes"/>
      <point x="255" y="-9"/>
      <point x="303" y="26"/>
      <point x="326" y="84" type="curve"/>
      <point x="329" y="84" type="line"/>
      <point x="331" y="0" type="line"/>
      <point x="354" y="0" type="line"/>
      <point x="354" y="327" type="line" smooth="yes"/>
      <point x="354" y="470"/>
      <point x="296" y="525"/>
      <point x="202" y="525" type="curve" smooth="yes"/>
      <point x="143" y="525"/>
      <point x="96" y="504"/>
      <point x="70" y="484" type="curve"/>
      <point x="70" y="455" type="line"/>
      <point x="107" y="485"/>
      <point x="149" y="500"/>
      <point x="196" y="500" type="curve" smooth="yes"/>
      <point x="283" y="500"/>
      <point x="328" y="448"/>
      <point x="328" y="320" type="curve" smooth="yes"/>
      <point x="328" y="195" type="line" smooth="yes"/>
      <point x="328" y="86"/>
      <point x="275" y="15"/>
      <point x="197" y="15" type="curve" smooth="yes"/>
      <point x="128" y="15"/>
      <point x="90" y="71"/>
      <point x="90" y="163" type="curve" smooth="yes"/>
      <point x="90" y="295" type="line"/>
      <point x="64" y="295" type="line"/>
      <point x="64" y="161" type="line" smooth="yes"/>
      <point x="64" y="49"/>
      <point x="115" y="-9"/>
    </contour>
  </outline>
</glyph>
<glyph name="choChang-thai" format="2">
  <advance width="375"/>
  <unicode hex="0E0A"/>
  <anchor x="296" y="0" name="bottom"/>
  <anchor x="321" y="506" name="top"/>
  <outline>
    <contour>
      <point x="186" y="-9" type="curve" smooth="yes"/>
      <point x="264" y="-9"/>
      <point x="310" y="44"/>
      <point x="310" y="138" type="curve" smooth="yes"/>
      <point x="310" y="294" type="line" smooth="yes"/>
      <point x="310" y="335"/>
      <point x="300" y="368"/>
      <point x="264" y="386" type="curve"/>
      <point x="264" y="389" type="line"/>
      <point x="300" y="407"/>
      <point x="315" y="445"/>
      <point x="315" y="517" type="curve"/>
      <point x="289" y="517" type="line"/>
      <point x="289" y="450"/>
      <point x="274" y="398"/>
      <point x="223" y="398" type="curve" smooth="yes"/>
      <point x="213" y="398" type="line"/>
      <point x="213" y="377" type="line"/>
      <point x="222" y="377" type="line" smooth="yes"/>
      <point x="256" y="377"/>
      <point x="284" y="350"/>
      <point x="284" y="293" type="curve" smooth="yes"/>
      <point x="284" y="139" type="line" smooth="yes"/>
      <point x="284" y="64"/>
      <point x="252" y="15"/>
      <point x="186" y="15" type="curve" smooth="yes"/>
      <point x="124" y="15"/>
      <point x="84" y="55"/>
      <point x="84" y="150" type="curve" smooth="yes"/>
      <point x="84" y="229" type="line" smooth="yes"/>
      <point x="84" y="280"/>
      <point x="97" y="305"/>
      <point x="118" y="341" type="curve" smooth="yes"/>
      <point x="138" y="376"/>
      <point x="156" y="404"/>
      <point x="156" y="450" type="curve" smooth="yes"/>
      <point x="156" y="506"/>
      <point x="126" y="523"/>
      <point x="97" y="523" type="curve" smooth="yes"/>
      <point x="78" y="523"/>
      <point x="59" y="516"/>
      <point x="45" y="507" type="curve"/>
      <point x="52" y="484" type="line"/>
      <point x="61" y="490"/>
      <point x="78" y="498"/>
      <point x="92" y="498" type="curve" smooth="yes"/>
      <point x="113" y="498"/>
      <point x="130" y="488"/>
      <point x="130" y="447" type="curve" smooth="yes"/>
      <point x="130" y="416"/>
      <point x="117" y="390"/>
      <point x="96" y="355" type="curve" smooth="yes"/>
      <point x="75" y="320"/>
      <point x="58" y="290"/>
      <point x="58" y="228" type="curve" smooth="yes"/>
      <point x="58" y="149" type="line" smooth="yes"/>
      <point x="58" y="39"/>
      <point x="107" y="-9"/>
    </contour>
  </outline>
</glyph>
<glyph name="soSo-thai" format="2">
  <advance width="379"/>
  <unicode hex="0E0B"/>
  <note>
uni0E0B
</note>
  <anchor x="300" y="0" name="bottom"/>
  <anchor x="320" y="506" name="top"/>
  <outline>
    <contour>
      <point x="187" y="-9" type="curve" smooth="yes"/>
      <point x="266" y="-9"/>
      <point x="314" y="44"/>
      <point x="314" y="138" type="curve" smooth="yes"/>
      <point x="314" y="294" type="line" smooth="yes"/>
      <point x="314" y="336"/>
      <point x="302" y="369"/>
      <point x="266" y="387" type="curve"/>
      <point x="266" y="390" type="line"/>
      <point x="304" y="408"/>
      <point x="319" y="445"/>
      <point x="319" y="517" type="curve"/>
      <point x="293" y="517" type="line"/>
      <point x="293" y="450"/>
      <point x="278" y="398"/>
      <point x="227" y="398" type="curve" smooth="yes"/>
      <point x="217" y="398" type="line"/>
      <point x="217" y="377" type="line"/>
      <point x="226" y="377" type="line" smooth="yes"/>
      <point x="260" y="377"/>
      <point x="288" y="350"/>
      <point x="288" y="293" type="curve" smooth="yes"/>
      <point x="288" y="139" type="line" smooth="yes"/>
      <point x="288" y="64"/>
      <point x="254" y="15"/>
      <point x="187" y="15" type="curve" smooth="yes"/>
      <point x="127" y="15"/>
      <point x="87" y="53"/>
      <point x="87" y="150" type="curve" smooth="yes"/>
      <point x="87" y="228" type="line" smooth="yes"/>
      <point x="87" y="278"/>
      <point x="101" y="307"/>
      <point x="126" y="346" type="curve" smooth="yes"/>
      <point x="153" y="388"/>
      <point x="161" y="400"/>
      <point x="161" y="460" type="curve" smooth="yes"/>
      <point x="161" y="517" type="line"/>
      <point x="144" y="517" type="line"/>
      <point x="137" y="468" type="line"/>
      <point x="126" y="451"/>
      <point x="113" y="445"/>
      <point x="100" y="445" type="curve" smooth="yes"/>
      <point x="74" y="445"/>
      <point x="63" y="458"/>
      <point x="63" y="517" type="curve"/>
      <point x="39" y="517" type="line"/>
      <point x="39" y="498" type="line" smooth="yes"/>
      <point x="39" y="446"/>
      <point x="61" y="423"/>
      <point x="92" y="423" type="curve" smooth="yes"/>
      <point x="112" y="423"/>
      <point x="126" y="435"/>
      <point x="135" y="448" type="curve"/>
      <point x="137" y="447" type="line"/>
      <point x="137" y="414"/>
      <point x="128" y="399"/>
      <point x="104" y="359" type="curve" smooth="yes"/>
      <point x="82" y="322"/>
      <point x="61" y="286"/>
      <point x="61" y="229" type="curve" smooth="yes"/>
      <point x="61" y="149" type="line" smooth="yes"/>
      <point x="61" y="39"/>
      <point x="108" y="-9"/>
    </contour>
  </outline>
</glyph>
<glyph name="choChoe-thai" format="2">
  <advance width="624"/>
  <unicode hex="0E0C"/>
  <anchor x="546" y="0" name="bottom"/>
  <anchor x="560" y="506" name="top"/>
  <outline>
    <contour>
      <point x="135" y="-7" type="curve" smooth="yes"/>
      <point x="150" y="-7"/>
      <point x="164" y="-3"/>
      <point x="178" y="5" type="curve"/>
      <point x="173" y="27" type="line"/>
      <point x="163" y="22"/>
      <point x="149" y="17"/>
      <point x="136" y="17" type="curve" smooth="yes"/>
      <point x="107" y="17"/>
      <point x="89" y="39"/>
      <point x="89" y="84" type="curve" smooth="yes"/>
      <point x="89" y="200" type="line" smooth="yes"/>
      <point x="89" y="268"/>
      <point x="119" y="295"/>
      <point x="155" y="300" type="curve"/>
      <point x="160" y="330" type="line"/>
      <point x="80" y="378" type="line"/>
      <point x="80" y="450"/>
      <point x="125" y="500"/>
      <point x="191" y="500" type="curve" smooth="yes"/>
      <point x="255" y="500"/>
      <point x="303" y="455"/>
      <point x="303" y="347" type="curve" smooth="yes"/>
      <point x="303" y="0" type="line"/>
      <point x="326" y="0" type="line"/>
      <point x="328" y="80" type="line"/>
      <point x="331" y="80" type="line"/>
      <point x="354" y="24"/>
      <point x="390" y="-9"/>
      <point x="449" y="-9" type="curve" smooth="yes"/>
      <point x="514" y="-9"/>
      <point x="560" y="40"/>
      <point x="560" y="144" type="curve" smooth="yes"/>
      <point x="560" y="517" type="line"/>
      <point x="534" y="517" type="line"/>
      <point x="534" y="148" type="line" smooth="yes"/>
      <point x="534" y="63"/>
      <point x="501" y="15"/>
      <point x="446" y="15" type="curve" smooth="yes"/>
      <point x="377" y="15"/>
      <point x="329" y="89"/>
      <point x="329" y="186" type="curve" smooth="yes"/>
      <point x="329" y="353" type="line" smooth="yes"/>
      <point x="329" y="468"/>
      <point x="269" y="525"/>
      <point x="191" y="525" type="curve" smooth="yes"/>
      <point x="107" y="525"/>
      <point x="53" y="460"/>
      <point x="53" y="381" type="curve" smooth="yes"/>
      <point x="53" y="363" type="line"/>
      <point x="133" y="320" type="line"/>
      <point x="133" y="318" type="line"/>
      <point x="94" y="305"/>
      <point x="63" y="275"/>
      <point x="63" y="200" type="curve" smooth="yes"/>
      <point x="63" y="83" type="line" smooth="yes"/>
      <point x="63" y="19"/>
      <point x="94" y="-7"/>
    </contour>
  </outline>
</glyph>
<glyph name="yoYing-thai" format="2">
  <advance width="630"/>
  <unicode hex="0E0D"/>
  <anchor x="550" y="-96" name="bottom"/>
  <anchor x="558" y="506" name="top"/>
  <outline>
    <contour>
      <point x="422" y="-140" type="curve" smooth="yes"/>
      <point x="503" y="-140"/>
      <point x="558" y="-94"/>
      <point x="558" y="33" type="curve" smooth="yes"/>
      <point x="558" y="517" type="line"/>
      <point x="532" y="517" type="line"/>
      <point x="532" y="195" type="line" smooth="yes"/>
      <point x="532" y="97"/>
      <point x="485" y="25"/>
      <point x="410" y="25" type="curve" smooth="yes"/>
      <point x="355" y="25"/>
      <point x="326" y="64"/>
      <point x="326" y="147" type="curve" smooth="yes"/>
      <point x="326" y="353" type="line" smooth="yes"/>
      <point x="326" y="471"/>
      <point x="266" y="525"/>
      <point x="190" y="525" type="curve" smooth="yes"/>
      <point x="106" y="525"/>
      <point x="53" y="460"/>
      <point x="53" y="381" type="curve" smooth="yes"/>
      <point x="53" y="363" type="line"/>
      <point x="133" y="320" type="line"/>
      <point x="133" y="318" type="line"/>
      <point x="94" y="305"/>
      <point x="63" y="275"/>
      <point x="63" y="200" type="curve" smooth="yes"/>
      <point x="63" y="83" type="line" smooth="yes"/>
      <point x="63" y="19"/>
      <point x="94" y="-7"/>
      <point x="135" y="-7" type="curve" smooth="yes"/>
      <point x="150" y="-7"/>
      <point x="164" y="-3"/>
      <point x="178" y="5" type="curve"/>
      <point x="173" y="27" type="line"/>
      <point x="163" y="22"/>
      <point x="149" y="17"/>
      <point x="136" y="17" type="curve" smooth="yes"/>
      <point x="107" y="17"/>
      <point x="89" y="39"/>
      <point x="89" y="84" type="curve" smooth="yes"/>
      <point x="89" y="200" type="line" smooth="yes"/>
      <point x="89" y="268"/>
      <point x="119" y="295"/>
      <point x="155" y="300" type="curve"/>
      <point x="160" y="330" type="line"/>
      <point x="80" y="378" type="line"/>
      <point x="80" y="452"/>
      <point x="124" y="500"/>
      <point x="190" y="500" type="curve" smooth="yes"/>
      <point x="253" y="500"/>
      <point x="300" y="457"/>
      <point x="300" y="347" type="curve" smooth="yes"/>
      <point x="300" y="142" type="line" smooth="yes"/>
      <point x="300" y="40"/>
      <point x="345" y="0"/>
      <point x="408" y="0" type="curve" smooth="yes"/>
      <point x="469" y="0"/>
      <point x="506" y="38"/>
      <point x="529" y="85" type="curve"/>
      <point x="532" y="85" type="line"/>
      <point x="532" y="36" type="line" smooth="yes"/>
      <point x="532" y="-82"/>
      <point x="483" y="-115"/>
      <point x="421" y="-115" type="curve" smooth="yes"/>
      <point x="383" y="-115"/>
      <point x="345" y="-102"/>
      <point x="315" y="-80" type="curve"/>
      <point x="315" y="-109" type="line"/>
      <point x="347" y="-129"/>
      <point x="382" y="-140"/>
    </contour>
  </outline>
</glyph>
<glyph name="toPatak-thai" format="2">
  <advance width="407"/>
  <unicode hex="0E0F"/>
  <anchor x="343" y="-165" name="bottom"/>
  <anchor x="336" y="506" name="top"/>
  <outline>
    <contour>
      <point x="56" y="-180" type="line"/>
      <point x="82" y="-180" type="line"/>
      <point x="82" y="-170" type="line" smooth="yes"/>
      <point x="82" y="-129"/>
      <point x="95" y="-100"/>
      <point x="125" y="-100" type="curve" smooth="yes"/>
      <point x="159" y="-100"/>
      <point x="177" y="-135"/>
      <point x="195" y="-180" type="curve"/>
      <point x="210" y="-180" type="line"/>
      <point x="262" y="-110" type="line"/>
      <point x="320" y="-180" type="line"/>
      <point x="343" y="-180" type="line"/>
      <point x="343" y="353" type="line" smooth="yes"/>
      <point x="343" y="464"/>
      <point x="283" y="525"/>
      <point x="198" y="525" type="curve" smooth="yes"/>
      <point x="106" y="525"/>
      <point x="53" y="454"/>
      <point x="53" y="381" type="curve" smooth="yes"/>
      <point x="53" y="363" type="line"/>
      <point x="134" y="320" type="line"/>
      <point x="133" y="318" type="line"/>
      <point x="94" y="305"/>
      <point x="68" y="275"/>
      <point x="68" y="200" type="curve" smooth="yes"/>
      <point x="68" y="61" type="line" smooth="yes"/>
      <point x="68" y="31"/>
      <point x="64" y="18"/>
      <point x="47" y="18" type="curve" smooth="yes"/>
      <point x="39" y="18"/>
      <point x="32" y="21"/>
      <point x="25" y="25" type="curve"/>
      <point x="20" y="2" type="line"/>
      <point x="30" y="-4"/>
      <point x="42" y="-7"/>
      <point x="52" y="-7" type="curve" smooth="yes"/>
      <point x="76" y="-7"/>
      <point x="94" y="10"/>
      <point x="94" y="57" type="curve" smooth="yes"/>
      <point x="94" y="200" type="line" smooth="yes"/>
      <point x="94" y="268"/>
      <point x="119" y="295"/>
      <point x="156" y="300" type="curve"/>
      <point x="160" y="330" type="line"/>
      <point x="80" y="378" type="line"/>
      <point x="80" y="446"/>
      <point x="125" y="500"/>
      <point x="198" y="500" type="curve" smooth="yes"/>
      <point x="269" y="500"/>
      <point x="317" y="450"/>
      <point x="317" y="347" type="curve" smooth="yes"/>
      <point x="317" y="-161" type="line"/>
      <point x="326" y="-157" type="line"/>
      <point x="262" y="-79" type="line"/>
      <point x="206" y="-152" type="line"/>
      <point x="190" y="-111"/>
      <point x="163" y="-75"/>
      <point x="123" y="-75" type="curve" smooth="yes"/>
      <point x="83" y="-75"/>
      <point x="56" y="-111"/>
      <point x="56" y="-166" type="curve" smooth="yes"/>
    </contour>
  </outline>
</glyph>
<glyph name="thoThan-thai" format="2">
  <advance width="375"/>
  <unicode hex="0E10"/>
  <anchor x="307" y="-152" name="bottom"/>
  <anchor x="317" y="506" name="top"/>
  <outline>
    <contour>
      <point x="114" y="0" type="line"/>
      <point x="141" y="0" type="line" smooth="yes"/>
      <point x="255" y="0"/>
      <point x="311" y="68"/>
      <point x="311" y="259" type="curve" smooth="yes"/>
      <point x="311" y="354"/>
      <point x="299" y="422"/>
      <point x="270" y="465" type="curve"/>
      <point x="248" y="506"/>
      <point x="209" y="525"/>
      <point x="155" y="525" type="curve" smooth="yes"/>
      <point x="104" y="525"/>
      <point x="58" y="501"/>
      <point x="31" y="482" type="curve"/>
      <point x="31" y="454" type="line"/>
      <point x="68" y="482"/>
      <point x="108" y="500"/>
      <point x="150" y="500" type="curve" smooth="yes"/>
      <point x="246" y="500"/>
      <point x="284" y="437"/>
      <point x="284" y="260" type="curve" smooth="yes"/>
      <point x="284" y="78"/>
      <point x="229" y="25"/>
      <point x="150" y="25" type="curve" smooth="yes"/>
      <point x="140" y="25" type="line"/>
      <point x="140" y="283" type="line"/>
      <point x="62" y="283" type="line"/>
      <point x="62" y="261" type="line"/>
      <point x="114" y="261" type="line"/>
    </contour>
    <contour>
      <point x="44" y="-180" type="line"/>
      <point x="69" y="-180" type="line"/>
      <point x="69" y="-170" type="line" smooth="yes"/>
      <point x="69" y="-128"/>
      <point x="79" y="-100"/>
      <point x="108" y="-100" type="curve" smooth="yes"/>
      <point x="138" y="-100"/>
      <point x="158" y="-140"/>
      <point x="170" y="-180" type="curve"/>
      <point x="182" y="-180" type="line"/>
      <point x="232" y="-113" type="line"/>
      <point x="283" y="-180" type="line"/>
      <point x="307" y="-180" type="line"/>
      <point x="307" y="-61" type="line"/>
      <point x="282" y="-61" type="line"/>
      <point x="282" y="-163" type="line"/>
      <point x="292" y="-159" type="line"/>
      <point x="232" y="-81" type="line"/>
      <point x="180" y="-151" type="line"/>
      <point x="164" y="-113"/>
      <point x="144" y="-75"/>
      <point x="105" y="-75" type="curve" smooth="yes"/>
      <point x="68" y="-75"/>
      <point x="44" y="-111"/>
      <point x="44" y="-166" type="curve" smooth="yes"/>
    </contour>
    <contour>
      <point x="268" y="452" type="line"/>
      <point x="309" y="465"/>
      <point x="341" y="498"/>
      <point x="341" y="551" type="curve"/>
      <point x="314" y="551" type="line"/>
      <point x="314" y="503"/>
      <point x="286" y="481"/>
      <point x="254" y="470" type="curve"/>
    </contour>
  </outline>
</glyph>
<glyph name="thoNangmontho-thai" format="2">
  <advance width="429"/>
  <unicode hex="0E11"/>
  <anchor x="366" y="0" name="bottom"/>
  <anchor x="359" y="506" name="top"/>
  <outline>
    <contour>
      <point x="73" y="0" type="line"/>
      <point x="99" y="0" type="line"/>
      <point x="99" y="222" type="line" smooth="yes"/>
      <point x="99" y="296"/>
      <point x="106" y="312"/>
      <point x="137" y="365" type="curve" smooth="yes"/>
      <point x="187" y="451"/>
      <point x="221" y="501"/>
      <point x="270" y="501" type="curve" smooth="yes"/>
      <point x="311" y="501"/>
      <point x="339" y="469"/>
      <point x="339" y="402" type="curve" smooth="yes"/>
      <point x="339" y="0" type="line"/>
      <point x="365" y="0" type="line"/>
      <point x="365" y="411" type="line" smooth="yes"/>
      <point x="365" y="481"/>
      <point x="332" y="525"/>
      <point x="272" y="525" type="curve" smooth="yes"/>
      <point x="222" y="525"/>
      <point x="193" y="488"/>
      <point x="165" y="448" type="curve"/>
      <point x="162" y="448" type="line"/>
      <point x="162" y="517" type="line"/>
      <point x="143" y="517" type="line"/>
      <point x="136" y="468" type="line"/>
      <point x="124" y="451"/>
      <point x="113" y="445"/>
      <point x="98" y="445" type="curve" smooth="yes"/>
      <point x="74" y="445"/>
      <point x="63" y="460"/>
      <point x="63" y="517" type="curve"/>
      <point x="39" y="517" type="line"/>
      <point x="39" y="498" type="line" smooth="yes"/>
      <point x="39" y="446"/>
      <point x="61" y="423"/>
      <point x="91" y="423" type="curve" smooth="yes"/>
      <point x="112" y="423"/>
      <point x="126" y="435"/>
      <point x="135" y="448" type="curve"/>
      <point x="137" y="447" type="line"/>
      <point x="137" y="416"/>
      <point x="129" y="399"/>
      <point x="103" y="358" type="curve" smooth="yes"/>
      <point x="85" y="330"/>
      <point x="73" y="304"/>
      <point x="73" y="234" type="curve" smooth="yes"/>
    </contour>
  </outline>
</glyph>
<glyph name="thoPhuthao-thai" format="2">
  <advance width="622"/>
  <unicode hex="0E12"/>
  <anchor x="564" y="0" name="bottom"/>
  <anchor x="577" y="506" name="top"/>
  <outline>
    <contour>
      <point x="186" y="-9" type="curve" smooth="yes"/>
      <point x="202" y="-9"/>
      <point x="217" y="-5"/>
      <point x="225" y="1" type="curve"/>
      <point x="222" y="23" type="line"/>
      <point x="213" y="18"/>
      <point x="202" y="15"/>
      <point x="190" y="15" type="curve" smooth="yes"/>
      <point x="101" y="15"/>
      <point x="77" y="94"/>
      <point x="77" y="267" type="curve" smooth="yes"/>
      <point x="77" y="441"/>
      <point x="101" y="500"/>
      <point x="144" y="500" type="curve" smooth="yes"/>
      <point x="175" y="500"/>
      <point x="191" y="478"/>
      <point x="196" y="433" type="curve"/>
      <point x="216" y="433" type="line"/>
      <point x="223" y="475"/>
      <point x="235" y="500"/>
      <point x="268" y="500" type="curve" smooth="yes"/>
      <point x="307" y="500"/>
      <point x="320" y="473"/>
      <point x="320" y="405" type="curve" smooth="yes"/>
      <point x="320" y="0" type="line"/>
      <point x="343" y="0" type="line"/>
      <point x="345" y="83" type="line"/>
      <point x="348" y="83" type="line"/>
      <point x="367" y="35"/>
      <point x="404" y="-9"/>
      <point x="467" y="-9" type="curve" smooth="yes"/>
      <point x="531" y="-9"/>
      <point x="578" y="41"/>
      <point x="578" y="144" type="curve" smooth="yes"/>
      <point x="578" y="517" type="line"/>
      <point x="552" y="517" type="line"/>
      <point x="552" y="148" type="line" smooth="yes"/>
      <point x="552" y="63"/>
      <point x="520" y="15"/>
      <point x="459" y="15" type="curve" smooth="yes"/>
      <point x="396" y="15"/>
      <point x="346" y="88"/>
      <point x="346" y="186" type="curve" smooth="yes"/>
      <point x="346" y="403" type="line" smooth="yes"/>
      <point x="346" y="484"/>
      <point x="325" y="525"/>
      <point x="272" y="525" type="curve" smooth="yes"/>
      <point x="238" y="525"/>
      <point x="217" y="498"/>
      <point x="208" y="474" type="curve"/>
      <point x="205" y="474" type="line"/>
      <point x="197" y="498"/>
      <point x="180" y="525"/>
      <point x="141" y="525" type="curve" smooth="yes"/>
      <point x="89" y="525"/>
      <point x="51" y="471"/>
      <point x="51" y="265" type="curve" smooth="yes"/>
      <point x="51" y="83"/>
      <point x="82" y="-9"/>
    </contour>
  </outline>
</glyph>
<glyph name="noNen-thai" format="2">
  <advance width="630"/>
  <unicode hex="0E13"/>
  <anchor x="558" y="0" name="bottom"/>
  <anchor x="558" y="506" name="top"/>
  <outline>
    <contour>
      <point x="135" y="-7" type="curve" smooth="yes"/>
      <point x="150" y="-7"/>
      <point x="164" y="-3"/>
      <point x="178" y="5" type="curve"/>
      <point x="173" y="27" type="line"/>
      <point x="163" y="22"/>
      <point x="149" y="17"/>
      <point x="137" y="17" type="curve" smooth="yes"/>
      <point x="107" y="17"/>
      <point x="89" y="39"/>
      <point x="89" y="84" type="curve" smooth="yes"/>
      <point x="89" y="200" type="line" smooth="yes"/>
      <point x="89" y="268"/>
      <point x="119" y="295"/>
      <point x="155" y="300" type="curve"/>
      <point x="160" y="330" type="line"/>
      <point x="80" y="378" type="line"/>
      <point x="80" y="452"/>
      <point x="125" y="500"/>
      <point x="189" y="500" type="curve" smooth="yes"/>
      <point x="253" y="500"/>
      <point x="300" y="457"/>
      <point x="300" y="347" type="curve" smooth="yes"/>
      <point x="300" y="144" type="line" smooth="yes"/>
      <point x="300" y="41"/>
      <point x="345" y="-9"/>
      <point x="414" y="-9" type="curve" smooth="yes"/>
      <point x="468" y="-9"/>
      <point x="510" y="31"/>
      <point x="530" y="83" type="curve"/>
      <point x="532" y="83" type="line"/>
      <point x="535" y="0" type="line"/>
      <point x="558" y="0" type="line"/>
      <point x="558" y="517" type="line"/>
      <point x="532" y="517" type="line"/>
      <point x="532" y="186" type="line" smooth="yes"/>
      <point x="532" y="88"/>
      <point x="481" y="15"/>
      <point x="419" y="15" type="curve" smooth="yes"/>
      <point x="357" y="15"/>
      <point x="326" y="63"/>
      <point x="326" y="148" type="curve" smooth="yes"/>
      <point x="326" y="353" type="line" smooth="yes"/>
      <point x="326" y="471"/>
      <point x="266" y="525"/>
      <point x="190" y="525" type="curve" smooth="yes"/>
      <point x="106" y="525"/>
      <point x="53" y="460"/>
      <point x="53" y="381" type="curve" smooth="yes"/>
      <point x="53" y="363" type="line"/>
      <point x="133" y="320" type="line"/>
      <point x="133" y="318" type="line"/>
      <point x="94" y="305"/>
      <point x="63" y="275"/>
      <point x="63" y="200" type="curve" smooth="yes"/>
      <point x="63" y="83" type="line" smooth="yes"/>
      <point x="63" y="19"/>
      <point x="94" y="-7"/>
    </contour>
  </outline>
</glyph>
<glyph name="doDek-thai" format="2">
  <advance width="426"/>
  <unicode hex="0E14"/>
  <anchor x="362" y="0" name="bottom"/>
  <anchor x="355" y="506" name="top"/>
  <outline>
    <contour>
      <point x="187" y="-9" type="curve" smooth="yes"/>
      <point x="203" y="-9"/>
      <point x="218" y="-7"/>
      <point x="229" y="-1" type="curve"/>
      <point x="225" y="22" type="line"/>
      <point x="217" y="18"/>
      <point x="203" y="15"/>
      <point x="192" y="15" type="curve" smooth="yes"/>
      <point x="100" y="15"/>
      <point x="77" y="115"/>
      <point x="77" y="254" type="curve" smooth="yes"/>
      <point x="77" y="449"/>
      <point x="132" y="500"/>
      <point x="215" y="500" type="curve" smooth="yes"/>
      <point x="299" y="500"/>
      <point x="336" y="445"/>
      <point x="336" y="357" type="curve" smooth="yes"/>
      <point x="336" y="0" type="line"/>
      <point x="362" y="0" type="line"/>
      <point x="362" y="360" type="line" smooth="yes"/>
      <point x="362" y="470"/>
      <point x="308" y="525"/>
      <point x="213" y="525" type="curve" smooth="yes"/>
      <point x="121" y="525"/>
      <point x="50" y="477"/>
      <point x="50" y="255" type="curve" smooth="yes"/>
      <point x="50" y="86"/>
      <point x="85" y="-9"/>
    </contour>
  </outline>
</glyph>
<glyph name="toTao-thai" format="2">
  <advance width="437"/>
  <unicode hex="0E15"/>
  <note>
uni0E15
</note>
  <anchor x="373" y="0" name="bottom"/>
  <anchor x="366" y="506" name="top"/>
  <outline>
    <contour>
      <point x="191" y="-9" type="curve" smooth="yes"/>
      <point x="208" y="-9"/>
      <point x="227" y="-5"/>
      <point x="237" y="1" type="curve"/>
      <point x="233" y="23" type="line"/>
      <point x="223" y="19"/>
      <point x="209" y="15"/>
      <point x="194" y="15" type="curve" smooth="yes"/>
      <point x="102" y="15"/>
      <point x="77" y="98"/>
      <point x="77" y="267" type="curve" smooth="yes"/>
      <point x="77" y="432"/>
      <point x="104" y="500"/>
      <point x="153" y="500" type="curve" smooth="yes"/>
      <point x="184" y="500"/>
      <point x="205" y="478"/>
      <point x="210" y="433" type="curve"/>
      <point x="230" y="433" type="line"/>
      <point x="236" y="475"/>
      <point x="251" y="500"/>
      <point x="287" y="500" type="curve" smooth="yes"/>
      <point x="326" y="500"/>
      <point x="347" y="473"/>
      <point x="347" y="405" type="curve" smooth="yes"/>
      <point x="347" y="0" type="line"/>
      <point x="373" y="0" type="line"/>
      <point x="373" y="403" type="line" smooth="yes"/>
      <point x="373" y="484"/>
      <point x="345" y="525"/>
      <point x="290" y="525" type="curve" smooth="yes"/>
      <point x="253" y="525"/>
      <point x="231" y="499"/>
      <point x="222" y="475" type="curve"/>
      <point x="219" y="475" type="line"/>
      <point x="211" y="499"/>
      <point x="191" y="525"/>
      <point x="151" y="525" type="curve" smooth="yes"/>
      <point x="91" y="525"/>
      <point x="51" y="462"/>
      <point x="51" y="265" type="curve" smooth="yes"/>
      <point x="51" y="87"/>
      <point x="83" y="-9"/>
    </contour>
  </outline>
</glyph>
<glyph name="thoThung-thai" format="2">
  <advance width="407"/>
  <unicode hex="0E16"/>
  <anchor x="343" y="0" name="bottom"/>
  <anchor x="336" y="506" name="top"/>
  <outline>
    <contour>
      <point x="135" y="-7" type="curve" smooth="yes"/>
      <point x="150" y="-7"/>
      <point x="164" y="-3"/>
      <point x="178" y="5" type="curve"/>
      <point x="173" y="27" type="line"/>
      <point x="163" y="22"/>
      <point x="149" y="17"/>
      <point x="137" y="17" type="curve" smooth="yes"/>
      <point x="107" y="17"/>
      <point x="89" y="39"/>
      <point x="89" y="84" type="curve" smooth="yes"/>
      <point x="89" y="201" type="line" smooth="yes"/>
      <point x="89" y="269"/>
      <point x="119" y="295"/>
      <point x="155" y="300" type="curve"/>
      <point x="160" y="330" type="line"/>
      <point x="80" y="378" type="line"/>
      <point x="80" y="446"/>
      <point x="125" y="500"/>
      <point x="198" y="500" type="curve" smooth="yes"/>
      <point x="269" y="500"/>
      <point x="317" y="450"/>
      <point x="317" y="347" type="curve" smooth="yes"/>
      <point x="317" y="0" type="line"/>
      <point x="343" y="0" type="line"/>
      <point x="343" y="353" type="line" smooth="yes"/>
      <point x="343" y="464"/>
      <point x="282" y="525"/>
      <point x="199" y="525" type="curve" smooth="yes"/>
      <point x="106" y="525"/>
      <point x="53" y="454"/>
      <point x="53" y="381" type="curve" smooth="yes"/>
      <point x="53" y="363" type="line"/>
      <point x="133" y="320" type="line"/>
      <point x="133" y="318" type="line"/>
      <point x="94" y="305"/>
      <point x="63" y="275"/>
      <point x="63" y="200" type="curve" smooth="yes"/>
      <point x="63" y="83" type="line" smooth="yes"/>
      <point x="63" y="19"/>
      <point x="94" y="-7"/>
    </contour>
  </outline>
</glyph>
<glyph name="thoThahan-thai" format="2">
  <advance width="425"/>
  <unicode hex="0E17"/>
  <anchor x="361" y="0" name="bottom"/>
  <anchor x="354" y="506" name="top"/>
  <outline>
    <contour>
      <point x="71" y="0" type="line"/>
      <point x="97" y="0" type="line"/>
      <point x="97" y="322" type="line" smooth="yes"/>
      <point x="97" y="426"/>
      <point x="148" y="500"/>
      <point x="226" y="500" type="curve" smooth="yes"/>
      <point x="294" y="500"/>
      <point x="335" y="450"/>
      <point x="335" y="358" type="curve" smooth="yes"/>
      <point x="335" y="0" type="line"/>
      <point x="361" y="0" type="line"/>
      <point x="361" y="361" type="line" smooth="yes"/>
      <point x="361" y="472"/>
      <point x="304" y="525"/>
      <point x="231" y="525" type="curve" smooth="yes"/>
      <point x="168" y="525"/>
      <point x="121" y="491"/>
      <point x="99" y="430" type="curve"/>
      <point x="96" y="430" type="line"/>
      <point x="91" y="517" type="line"/>
      <point x="71" y="517" type="line"/>
    </contour>
  </outline>
</glyph>
<glyph name="thoThong-thai" format="2">
  <advance width="369"/>
  <unicode hex="0E18"/>
  <anchor x="274" y="0" name="bottom"/>
  <anchor x="318" y="506" name="top"/>
  <outline>
    <contour>
      <point x="186" y="-9" type="curve" smooth="yes"/>
      <point x="273" y="-9"/>
      <point x="328" y="30"/>
      <point x="328" y="141" type="curve" smooth="yes"/>
      <point x="328" y="248"/>
      <point x="272" y="273"/>
      <point x="190" y="311" type="curve" smooth="yes"/>
      <point x="119" y="344"/>
      <point x="78" y="364"/>
      <point x="78" y="421" type="curve" smooth="yes"/>
      <point x="78" y="483"/>
      <point x="125" y="501"/>
      <point x="177" y="501" type="curve" smooth="yes"/>
      <point x="232" y="501"/>
      <point x="284" y="482"/>
      <point x="308" y="465" type="curve"/>
      <point x="308" y="493" type="line"/>
      <point x="287" y="506"/>
      <point x="242" y="525"/>
      <point x="181" y="525" type="curve" smooth="yes"/>
      <point x="93" y="525"/>
      <point x="52" y="489"/>
      <point x="52" y="418" type="curve" smooth="yes"/>
      <point x="52" y="357"/>
      <point x="85" y="330"/>
      <point x="168" y="293" type="curve" smooth="yes"/>
      <point x="245" y="259"/>
      <point x="302" y="243"/>
      <point x="302" y="141" type="curve" smooth="yes"/>
      <point x="302" y="45"/>
      <point x="250" y="15"/>
      <point x="188" y="15" type="curve" smooth="yes"/>
      <point x="150" y="15"/>
      <point x="105" y="27"/>
      <point x="87" y="39" type="curve"/>
      <point x="87" y="241" type="line"/>
      <point x="61" y="241" type="line"/>
      <point x="61" y="19" type="line"/>
      <point x="91" y="3"/>
      <point x="137" y="-9"/>
    </contour>
  </outline>
</glyph>
<glyph name="noNu-thai" format="2">
  <advance width="422"/>
  <unicode hex="0E19"/>
  <note>
uni0E19
</note>
  <anchor x="350" y="0" name="bottom"/>
  <anchor x="350" y="506" name="top"/>
  <outline>
    <contour>
      <point x="196" y="-9" type="curve" smooth="yes"/>
      <point x="257" y="-9"/>
      <point x="299" y="29"/>
      <point x="322" y="87" type="curve"/>
      <point x="325" y="87" type="line"/>
      <point x="327" y="0" type="line"/>
      <point x="350" y="0" type="line"/>
      <point x="350" y="517" type="line"/>
      <point x="324" y="517" type="line"/>
      <point x="324" y="195" type="line" smooth="yes"/>
      <point x="324" y="85"/>
      <point x="274" y="15"/>
      <point x="198" y="15" type="curve" smooth="yes"/>
      <point x="130" y="15"/>
      <point x="90" y="66"/>
      <point x="90" y="159" type="curve" smooth="yes"/>
      <point x="90" y="517" type="line"/>
      <point x="64" y="517" type="line"/>
      <point x="64" y="156" type="line" smooth="yes"/>
      <point x="64" y="43"/>
      <point x="119" y="-9"/>
    </contour>
  </outline>
</glyph>
<glyph name="poPla-thai" format="2">
  <advance width="417"/>
  <unicode hex="0E1B"/>
  <note>
uni0E1B
</note>
  <anchor x="338" y="0" name="bottom"/>
  <anchor x="277" y="506" name="top"/>
  <outline>
    <contour>
      <point x="208" y="-9" type="curve" smooth="yes"/>
      <point x="308" y="-9"/>
      <point x="352" y="63"/>
      <point x="352" y="165" type="curve" smooth="yes"/>
      <point x="352" y="703" type="line"/>
      <point x="326" y="703" type="line"/>
      <point x="326" y="167" type="line" smooth="yes"/>
      <point x="326" y="72"/>
      <point x="287" y="15"/>
      <point x="208" y="15" type="curve" smooth="yes"/>
      <point x="129" y="15"/>
      <point x="90" y="72"/>
      <point x="90" y="167" type="curve" smooth="yes"/>
      <point x="90" y="517" type="line"/>
      <point x="64" y="517" type="line"/>
      <point x="64" y="165" type="line" smooth="yes"/>
      <point x="64" y="63"/>
      <point x="108" y="-9"/>
    </contour>
  </outline>
</glyph>
<glyph name="foFa-thai" format="2">
  <advance width="449"/>
  <unicode hex="0E1D"/>
  <anchor x="377" y="0" name="bottom"/>
  <anchor x="304" y="506" name="top"/>
  <outline>
    <contour>
      <point x="67" y="0" type="line"/>
      <point x="89" y="0" type="line"/>
      <point x="221" y="308" type="line"/>
      <point x="224" y="308" type="line"/>
      <point x="356" y="0" type="line"/>
      <point x="378" y="0" type="line"/>
      <point x="378" y="703" type="line"/>
      <point x="352" y="703" type="line"/>
      <point x="352" y="199" type="line" smooth="yes"/>
      <point x="352" y="160"/>
      <point x="353" y="108"/>
      <point x="359" y="45" type="curve"/>
      <point x="357" y="45" type="line"/>
      <point x="336" y="104"/>
      <point x="321" y="142"/>
      <point x="302" y="185" type="curve" smooth="yes"/>
      <point x="231" y="346" type="line"/>
      <point x="214" y="346" type="line"/>
      <point x="143" y="185" type="line" smooth="yes"/>
      <point x="125" y="143"/>
      <point x="109" y="104"/>
      <point x="88" y="45" type="curve"/>
      <point x="86" y="45" type="line"/>
      <point x="92" y="108"/>
      <point x="93" y="160"/>
      <point x="93" y="199" type="curve" smooth="yes"/>
      <point x="93" y="434" type="line" smooth="yes"/>
      <point x="93" y="488"/>
      <point x="111" y="500"/>
      <point x="138" y="500" type="curve" smooth="yes"/>
      <point x="149" y="500"/>
      <point x="163" y="496"/>
      <point x="172" y="492" type="curve"/>
      <point x="175" y="514" type="line"/>
      <point x="166" y="519"/>
      <point x="149" y="525"/>
      <point x="134" y="525" type="curve" smooth="yes"/>
      <point x="102" y="525"/>
      <point x="67" y="505"/>
      <point x="67" y="438" type="curve" smooth="yes"/>
    </contour>
  </outline>
</glyph>
<glyph name="phoPhan-thai" format="2">
  <advance width="474"/>
  <unicode hex="0E1E"/>
  <note>
uni0E1E
</note>
  <anchor x="369" y="0" name="bottom"/>
  <anchor x="407" y="506" name="top"/>
  <outline>
    <contour>
      <point x="105" y="0" type="line"/>
      <point x="130" y="0" type="line"/>
      <point x="212" y="347" type="line" smooth="yes"/>
      <point x="220" y="379"/>
      <point x="229" y="419"/>
      <point x="235" y="460" type="curve"/>
      <point x="238" y="460" type="line"/>
      <point x="245" y="419"/>
      <point x="252" y="379"/>
      <point x="260" y="347" type="curve" smooth="yes"/>
      <point x="342" y="0" type="line"/>
      <point x="369" y="0" type="line"/>
      <point x="437" y="517" type="line"/>
      <point x="413" y="517" type="line"/>
      <point x="372" y="205" type="line" smooth="yes"/>
      <point x="368" y="176"/>
      <point x="361" y="114"/>
      <point x="356" y="47" type="curve"/>
      <point x="353" y="47" type="line"/>
      <point x="340" y="115"/>
      <point x="322" y="192"/>
      <point x="314" y="226" type="curve" smooth="yes"/>
      <point x="245" y="517" type="line"/>
      <point x="228" y="517" type="line"/>
      <point x="159" y="226" type="line" smooth="yes"/>
      <point x="151" y="192"/>
      <point x="134" y="115"/>
      <point x="121" y="47" type="curve"/>
      <point x="118" y="47" type="line"/>
      <point x="112" y="114"/>
      <point x="105" y="176"/>
      <point x="101" y="205" type="curve" smooth="yes"/>
      <point x="61" y="517" type="line"/>
      <point x="37" y="517" type="line"/>
    </contour>
  </outline>
</glyph>
<glyph name="moMa-thai" format="2">
  <advance width="426"/>
  <unicode hex="0E21"/>
  <note>
uni0E21
</note>
  <anchor x="348" y="0" name="bottom"/>
  <anchor x="362" y="506" name="top"/>
  <outline>
    <contour>
      <point x="234" y="-9" type="curve" smooth="yes"/>
      <point x="307" y="-9"/>
      <point x="362" y="43"/>
      <point x="362" y="156" type="curve" smooth="yes"/>
      <point x="362" y="517" type="line"/>
      <point x="336" y="517" type="line"/>
      <point x="336" y="159" type="line" smooth="yes"/>
      <point x="336" y="65"/>
      <point x="297" y="15"/>
      <point x="229" y="15" type="curve" smooth="yes"/>
      <point x="152" y="15"/>
      <point x="98" y="93"/>
      <point x="98" y="195" type="curve" smooth="yes"/>
      <point x="98" y="517" type="line"/>
      <point x="72" y="517" type="line"/>
      <point x="72" y="0" type="line"/>
      <point x="95" y="0" type="line"/>
      <point x="97" y="93" type="line"/>
      <point x="100" y="93" type="line"/>
      <point x="123" y="33"/>
      <point x="166" y="-9"/>
    </contour>
  </outline>
</glyph>
<glyph name="yoYak-thai" format="2">
  <advance width="409"/>
  <unicode hex="0E22"/>
  <note>
uni0E22
</note>
  <anchor x="331" y="0" name="bottom"/>
  <anchor x="345" y="506" name="top"/>
  <outline>
    <contour>
      <point x="202" y="-9" type="curve" smooth="yes"/>
      <point x="293" y="-9"/>
      <point x="345" y="45"/>
      <point x="345" y="168" type="curve" smooth="yes"/>
      <point x="345" y="517" type="line"/>
      <point x="319" y="517" type="line"/>
      <point x="319" y="163" type="line" smooth="yes"/>
      <point x="319" y="53"/>
      <point x="272" y="16"/>
      <point x="202" y="16" type="curve" smooth="yes"/>
      <point x="129" y="16"/>
      <point x="84" y="58"/>
      <point x="84" y="151" type="curve" smooth="yes"/>
      <point x="84" y="228"/>
      <point x="118" y="271"/>
      <point x="175" y="271" type="curve" smooth="yes"/>
      <point x="199" y="271" type="line"/>
      <point x="199" y="293" type="line"/>
      <point x="175" y="293" type="line" smooth="yes"/>
      <point x="133" y="293"/>
      <point x="82" y="316"/>
      <point x="82" y="401" type="curve" smooth="yes"/>
      <point x="82" y="470"/>
      <point x="114" y="499"/>
      <point x="159" y="499" type="curve" smooth="yes"/>
      <point x="177" y="499"/>
      <point x="197" y="494"/>
      <point x="207" y="489" type="curve"/>
      <point x="212" y="512" type="line"/>
      <point x="198" y="519"/>
      <point x="177" y="524"/>
      <point x="154" y="524" type="curve" smooth="yes"/>
      <point x="93" y="524"/>
      <point x="55" y="478"/>
      <point x="55" y="405" type="curve" smooth="yes"/>
      <point x="55" y="318"/>
      <point x="93" y="297"/>
      <point x="119" y="283" type="curve"/>
      <point x="119" y="279" type="line"/>
      <point x="91" y="263"/>
      <point x="57" y="237"/>
      <point x="57" y="147" type="curve" smooth="yes"/>
      <point x="57" y="56"/>
      <point x="103" y="-9"/>
    </contour>
  </outline>
</glyph>
<glyph name="roRua-thai" format="2">
  <advance width="332"/>
  <unicode hex="0E23"/>
  <note>
uni0E23
</note>
  <anchor x="262" y="0" name="bottom"/>
  <anchor x="297" y="506" name="top"/>
  <outline>
    <contour>
      <point x="164" y="-9" type="curve" smooth="yes"/>
      <point x="255" y="-9"/>
      <point x="298" y="39"/>
      <point x="298" y="125" type="curve" smooth="yes"/>
      <point x="298" y="216"/>
      <point x="247" y="245"/>
      <point x="184" y="277" type="curve" smooth="yes"/>
      <point x="118" y="311"/>
      <point x="65" y="335"/>
      <point x="65" y="408" type="curve" smooth="yes"/>
      <point x="65" y="466"/>
      <point x="100" y="501"/>
      <point x="164" y="501" type="curve" smooth="yes"/>
      <point x="208" y="501"/>
      <point x="255" y="485"/>
      <point x="278" y="469" type="curve"/>
      <point x="278" y="494" type="line"/>
      <point x="257" y="510"/>
      <point x="211" y="525"/>
      <point x="165" y="525" type="curve" smooth="yes"/>
      <point x="81" y="525"/>
      <point x="39" y="479"/>
      <point x="39" y="405" type="curve" smooth="yes"/>
      <point x="39" y="325"/>
      <point x="88" y="296"/>
      <point x="168" y="257" type="curve" smooth="yes"/>
      <point x="225" y="229"/>
      <point x="272" y="203"/>
      <point x="272" y="124" type="curve" smooth="yes"/>
      <point x="272" y="52"/>
      <point x="229" y="14"/>
      <point x="167" y="14" type="curve" smooth="yes"/>
      <point x="121" y="14"/>
      <point x="75" y="32"/>
      <point x="44" y="50" type="curve"/>
      <point x="36" y="26" type="line"/>
      <point x="68" y="8"/>
      <point x="113" y="-9"/>
    </contour>
  </outline>
</glyph>
<glyph name="ru-thai" format="2">
  <advance width="407"/>
  <unicode hex="0E24"/>
  <anchor x="343" y="-165" name="bottom"/>
  <anchor x="335" y="506" name="top"/>
  <outline>
    <contour>
      <point x="317" y="-180" type="line"/>
      <point x="343" y="-180" type="line"/>
      <point x="343" y="94" type="line"/>
      <point x="317" y="94" type="line"/>
    </contour>
    <component base="thoThung-thai"/>
  </outline>
</glyph>
<glyph name="loLing-thai" format="2">
  <advance width="394"/>
  <unicode hex="0E25"/>
  <anchor x="330" y="0" name="bottom"/>
  <anchor x="328" y="506" name="top"/>
  <outline>
    <contour>
      <point x="304" y="0" type="line"/>
      <point x="330" y="0" type="line"/>
      <point x="330" y="369" type="line" smooth="yes"/>
      <point x="330" y="468"/>
      <point x="284" y="525"/>
      <point x="198" y="525" type="curve" smooth="yes"/>
      <point x="140" y="525"/>
      <point x="96" y="504"/>
      <point x="70" y="488" type="curve"/>
      <point x="70" y="458" type="line"/>
      <point x="106" y="484"/>
      <point x="149" y="500"/>
      <point x="195" y="500" type="curve" smooth="yes"/>
      <point x="270" y="500"/>
      <point x="304" y="451"/>
      <point x="304" y="366" type="curve" smooth="yes"/>
    </contour>
    <contour>
      <point x="160" y="-9" type="curve" smooth="yes"/>
      <point x="176" y="-9"/>
      <point x="197" y="-5"/>
      <point x="207" y="0" type="curve"/>
      <point x="203" y="23" type="line"/>
      <point x="191" y="18"/>
      <point x="177" y="15"/>
      <point x="160" y="15" type="curve" smooth="yes"/>
      <point x="104" y="15"/>
      <point x="67" y="55"/>
      <point x="67" y="131" type="curve" smooth="yes"/>
      <point x="67" y="226"/>
      <point x="114" y="266"/>
      <point x="220" y="273" type="curve" smooth="yes"/>
      <point x="310" y="279" type="line"/>
      <point x="310" y="304" type="line"/>
      <point x="213" y="297" type="line" smooth="yes"/>
      <point x="92" y="288"/>
      <point x="40" y="236"/>
      <point x="40" y="130" type="curve" smooth="yes"/>
      <point x="40" y="51"/>
      <point x="76" y="-9"/>
    </contour>
  </outline>
</glyph>
<glyph name="lu-thai" format="2">
  <advance width="407"/>
  <unicode hex="0E26"/>
  <anchor x="343" y="-165" name="bottom"/>
  <anchor x="342" y="506" name="top"/>
  <outline>
    <contour>
      <point x="317" y="-180" type="line"/>
      <point x="343" y="-180" type="line"/>
      <point x="343" y="94" type="line"/>
      <point x="317" y="94" type="line"/>
    </contour>
    <component base="phoSamphao-thai"/>
  </outline>
</glyph>
<glyph name="woWaen-thai" format="2">
  <advance width="340"/>
  <unicode hex="0E27"/>
  <anchor x="227" y="0" name="bottom"/>
  <anchor x="284" y="504" name="top"/>
  <outline>
    <contour>
      <point x="137" y="-9" type="curve" smooth="yes"/>
      <point x="232" y="-9"/>
      <point x="289" y="78"/>
      <point x="289" y="260" type="curve" smooth="yes"/>
      <point x="289" y="436"/>
      <point x="239" y="525"/>
      <point x="121" y="525" type="curve" smooth="yes"/>
      <point x="90" y="525"/>
      <point x="57" y="517"/>
      <point x="31" y="499" type="curve"/>
      <point x="31" y="473" type="line"/>
      <point x="55" y="490"/>
      <point x="87" y="500"/>
      <point x="116" y="500" type="curve" smooth="yes"/>
      <point x="217" y="500"/>
      <point x="262" y="426"/>
      <point x="262" y="260" type="curve" smooth="yes"/>
      <point x="262" y="90"/>
      <point x="210" y="15"/>
      <point x="132" y="15" type="curve" smooth="yes"/>
      <point x="98" y="15"/>
      <point x="69" y="29"/>
      <point x="46" y="49" type="curve"/>
      <point x="35" y="25" type="line"/>
      <point x="68" y="0"/>
      <point x="100" y="-9"/>
    </contour>
  </outline>
</glyph>
<glyph name="soSala-thai" format="2">
  <advance width="434"/>
  <unicode hex="0E28"/>
  <anchor x="358" y="0" name="bottom"/>
  <anchor x="355" y="506" name="top"/>
  <outline>
    <contour>
      <point x="64" y="0" type="line"/>
      <point x="90" y="0" type="line"/>
      <point x="90" y="128" type="line" smooth="yes"/>
      <point x="90" y="208"/>
      <point x="130" y="255"/>
      <point x="201" y="255" type="curve" smooth="yes"/>
      <point x="235" y="255" type="line"/>
      <point x="235" y="279" type="line"/>
      <point x="200" y="279" type="line" smooth="yes"/>
      <point x="143" y="279"/>
      <point x="111" y="250"/>
      <point x="92" y="215" type="curve"/>
      <point x="90" y="216" type="line"/>
      <point x="90" y="346" type="line" smooth="yes"/>
      <point x="90" y="447"/>
      <point x="136" y="500"/>
      <point x="212" y="500" type="curve" smooth="yes"/>
      <point x="288" y="500"/>
      <point x="333" y="447"/>
      <point x="333" y="346" type="curve" smooth="yes"/>
      <point x="333" y="0" type="line"/>
      <point x="359" y="0" type="line"/>
      <point x="359" y="348" type="line" smooth="yes"/>
      <point x="359" y="399"/>
      <point x="348" y="439"/>
      <point x="324" y="467" type="curve"/>
      <point x="301" y="505"/>
      <point x="262" y="525"/>
      <point x="212" y="525" type="curve" smooth="yes"/>
      <point x="118" y="525"/>
      <point x="64" y="463"/>
      <point x="64" y="348" type="curve" smooth="yes"/>
    </contour>
    <contour>
      <point x="316" y="452" type="line"/>
      <point x="357" y="465"/>
      <point x="388" y="498"/>
      <point x="388" y="551" type="curve"/>
      <point x="361" y="551" type="line"/>
      <point x="361" y="503"/>
      <point x="334" y="481"/>
      <point x="301" y="470" type="curve"/>
    </contour>
  </outline>
</glyph>
<glyph name="soRusi-thai" format="2">
  <advance width="441"/>
  <unicode hex="0E29"/>
  <anchor x="347" y="0" name="bottom"/>
  <anchor x="362" y="506" name="top"/>
  <outline>
    <contour>
      <point x="213" y="-9" type="curve" smooth="yes"/>
      <point x="318" y="-9"/>
      <point x="362" y="71"/>
      <point x="362" y="169" type="curve" smooth="yes"/>
      <point x="362" y="517" type="line"/>
      <point x="336" y="517" type="line"/>
      <point x="336" y="172" type="line" smooth="yes"/>
      <point x="336" y="72"/>
      <point x="297" y="15"/>
      <point x="213" y="15" type="curve" smooth="yes"/>
      <point x="129" y="15"/>
      <point x="90" y="72"/>
      <point x="90" y="172" type="curve" smooth="yes"/>
      <point x="90" y="517" type="line"/>
      <point x="64" y="517" type="line"/>
      <point x="64" y="169" type="line" smooth="yes"/>
      <point x="64" y="71"/>
      <point x="108" y="-9"/>
    </contour>
    <contour>
      <point x="250" y="244" type="curve" smooth="yes"/>
      <point x="407" y="244" type="line"/>
      <point x="407" y="266" type="line"/>
      <point x="252" y="266" type="line" smooth="yes"/>
      <point x="229" y="266"/>
      <point x="221" y="276"/>
      <point x="221" y="298" type="curve" smooth="yes"/>
      <point x="221" y="307"/>
      <point x="223" y="317"/>
      <point x="225" y="323" type="curve"/>
      <point x="203" y="330" type="line"/>
      <point x="199" y="322"/>
      <point x="196" y="309"/>
      <point x="196" y="293" type="curve" smooth="yes"/>
      <point x="196" y="260"/>
      <point x="213" y="244"/>
    </contour>
  </outline>
</glyph>
<glyph name="soSua-thai" format="2">
  <advance width="393"/>
  <unicode hex="0E2A"/>
  <note>
uni0E2A
</note>
  <anchor x="330" y="0" name="bottom"/>
  <anchor x="330" y="506" name="top"/>
  <outline>
    <contour>
      <point x="304" y="0" type="line"/>
      <point x="330" y="0" type="line"/>
      <point x="330" y="369" type="line" smooth="yes"/>
      <point x="330" y="411"/>
      <point x="321" y="446"/>
      <point x="301" y="471" type="curve"/>
      <point x="281" y="505"/>
      <point x="248" y="525"/>
      <point x="196" y="525" type="curve" smooth="yes"/>
      <point x="141" y="525"/>
      <point x="96" y="504"/>
      <point x="70" y="488" type="curve"/>
      <point x="70" y="458" type="line"/>
      <point x="106" y="484"/>
      <point x="149" y="500"/>
      <point x="195" y="500" type="curve" smooth="yes"/>
      <point x="270" y="500"/>
      <point x="304" y="451"/>
      <point x="304" y="366" type="curve" smooth="yes"/>
    </contour>
    <contour>
      <point x="156" y="-9" type="curve" smooth="yes"/>
      <point x="178" y="-9"/>
      <point x="197" y="-5"/>
      <point x="208" y="0" type="curve"/>
      <point x="203" y="23" type="line"/>
      <point x="191" y="18"/>
      <point x="176" y="15"/>
      <point x="160" y="15" type="curve" smooth="yes"/>
      <point x="104" y="15"/>
      <point x="67" y="54"/>
      <point x="67" y="133" type="curve" smooth="yes"/>
      <point x="67" y="227"/>
      <point x="117" y="265"/>
      <point x="220" y="273" type="curve" smooth="yes"/>
      <point x="310" y="280" type="line"/>
      <point x="310" y="304" type="line"/>
      <point x="213" y="298" type="line" smooth="yes"/>
      <point x="97" y="291"/>
      <point x="40" y="239"/>
      <point x="40" y="133" type="curve" smooth="yes"/>
      <point x="40" y="51"/>
      <point x="77" y="-9"/>
    </contour>
    <contour>
      <point x="297" y="456" type="line"/>
      <point x="333" y="472"/>
      <point x="359" y="504"/>
      <point x="359" y="551" type="curve"/>
      <point x="332" y="551" type="line"/>
      <point x="332" y="508"/>
      <point x="310" y="485"/>
      <point x="282" y="474" type="curve"/>
    </contour>
  </outline>
</glyph>
<glyph name="hoHip-thai" format="2">
  <advance width="405"/>
  <unicode hex="0E2B"/>
  <note>
uni0E2B
</note>
  <anchor x="348" y="0" name="bottom"/>
  <anchor x="347" y="506" name="top"/>
  <outline>
    <contour>
      <point x="72" y="0" type="line"/>
      <point x="98" y="0" type="line"/>
      <point x="98" y="192" type="line"/>
      <point x="344" y="514" type="line"/>
      <point x="344" y="517" type="line"/>
      <point x="313" y="517" type="line"/>
      <point x="100" y="232" type="line"/>
      <point x="98" y="232" type="line"/>
      <point x="98" y="517" type="line"/>
      <point x="72" y="517" type="line"/>
    </contour>
    <contour>
      <point x="322" y="0" type="line"/>
      <point x="348" y="0" type="line"/>
      <point x="348" y="174" type="line" smooth="yes"/>
      <point x="348" y="291"/>
      <point x="310" y="352"/>
      <point x="214" y="355" type="curve"/>
      <point x="194" y="333" type="line"/>
      <point x="288" y="337"/>
      <point x="322" y="280"/>
      <point x="322" y="174" type="curve" smooth="yes"/>
    </contour>
  </outline>
</glyph>
<glyph name="loChula-thai" format="2">
  <advance width="449"/>
  <unicode hex="0E2C"/>
  <anchor x="358" y="0" name="bottom"/>
  <outline>
    <contour>
      <point x="95" y="0" type="line"/>
      <point x="120" y="0" type="line"/>
      <point x="203" y="290" type="line" smooth="yes"/>
      <point x="210" y="314"/>
      <point x="219" y="351"/>
      <point x="225" y="394" type="curve"/>
      <point x="228" y="394" type="line"/>
      <point x="235" y="351"/>
      <point x="243" y="319"/>
      <point x="251" y="290" type="curve" smooth="yes"/>
      <point x="333" y="0" type="line"/>
      <point x="359" y="0" type="line"/>
      <point x="403" y="393" type="line" smooth="yes"/>
      <point x="410" y="458"/>
      <point x="402" y="506"/>
      <point x="367" y="529" type="curve"/>
      <point x="367" y="532" type="line"/>
      <point x="417" y="551"/>
      <point x="439" y="586"/>
      <point x="439" y="663" type="curve" smooth="yes"/>
      <point x="439" y="674" type="line"/>
      <point x="412" y="674" type="line"/>
      <point x="412" y="663" type="line" smooth="yes"/>
      <point x="412" y="589"/>
      <point x="387" y="550"/>
      <point x="324" y="550" type="curve" smooth="yes"/>
      <point x="264" y="550" type="line"/>
      <point x="264" y="528" type="line"/>
      <point x="297" y="528" type="line" smooth="yes"/>
      <point x="366" y="528"/>
      <point x="389" y="483"/>
      <point x="379" y="385" type="curve" smooth="yes"/>
      <point x="359" y="198" type="line" smooth="yes"/>
      <point x="355" y="159"/>
      <point x="348" y="106"/>
      <point x="345" y="45" type="curve"/>
      <point x="342" y="45" type="line"/>
      <point x="330" y="96"/>
      <point x="316" y="152"/>
      <point x="296" y="221" type="curve" smooth="yes"/>
      <point x="235" y="431" type="line"/>
      <point x="217" y="431" type="line"/>
      <point x="158" y="221" type="line" smooth="yes"/>
      <point x="140" y="156"/>
      <point x="146" y="176"/>
      <point x="112" y="45" type="curve"/>
      <point x="109" y="45" type="line"/>
      <point x="106" y="106"/>
      <point x="100" y="152"/>
      <point x="95" y="199" type="curve" smooth="yes"/>
      <point x="61" y="517" type="line"/>
      <point x="37" y="517" type="line"/>
    </contour>
  </outline>
</glyph>
<glyph name="oAng-thai" format="2">
  <advance width="396"/>
  <unicode hex="0E2D"/>
  <note>
uni0E2D
</note>
  <anchor x="286" y="0" name="bottom"/>
  <anchor x="328" y="506" name="top"/>
  <outline>
    <contour>
      <point x="190" y="-9" type="curve" smooth="yes"/>
      <point x="302" y="-9"/>
      <point x="345" y="78"/>
      <point x="345" y="256" type="curve" smooth="yes"/>
      <point x="345" y="426"/>
      <point x="301" y="525"/>
      <point x="185" y="525" type="curve" smooth="yes"/>
      <point x="134" y="525"/>
      <point x="87" y="506"/>
      <point x="60" y="489" type="curve"/>
      <point x="60" y="460" type="line"/>
      <point x="95" y="484"/>
      <point x="139" y="500"/>
      <point x="183" y="500" type="curve" smooth="yes"/>
      <point x="284" y="500"/>
      <point x="319" y="406"/>
      <point x="319" y="257" type="curve" smooth="yes"/>
      <point x="319" y="82"/>
      <point x="275" y="14"/>
      <point x="191" y="14" type="curve" smooth="yes"/>
      <point x="108" y="14"/>
      <point x="76" y="81"/>
      <point x="76" y="212" type="curve" smooth="yes"/>
      <point x="76" y="260" type="line"/>
      <point x="181" y="260" type="line"/>
      <point x="181" y="282" type="line"/>
      <point x="52" y="282" type="line"/>
      <point x="51" y="265"/>
      <point x="50" y="232"/>
      <point x="50" y="212" type="curve" smooth="yes"/>
      <point x="50" y="59"/>
      <point x="93" y="-9"/>
    </contour>
  </outline>
</glyph>
<glyph name="hoNokhuk-thai" format="2">
  <advance width="387"/>
  <unicode hex="0E2E"/>
  <anchor x="288" y="0" name="bottom"/>
  <anchor x="322" y="506" name="top"/>
  <outline>
    <contour>
      <point x="190" y="-9" type="curve" smooth="yes"/>
      <point x="302" y="-9"/>
      <point x="345" y="78"/>
      <point x="345" y="255" type="curve" smooth="yes"/>
      <point x="345" y="350"/>
      <point x="332" y="424"/>
      <point x="299" y="468" type="curve"/>
      <point x="275" y="506"/>
      <point x="235" y="525"/>
      <point x="185" y="525" type="curve" smooth="yes"/>
      <point x="133" y="525"/>
      <point x="87" y="506"/>
      <point x="60" y="489" type="curve"/>
      <point x="60" y="460" type="line"/>
      <point x="95" y="484"/>
      <point x="139" y="500"/>
      <point x="183" y="500" type="curve" smooth="yes"/>
      <point x="284" y="500"/>
      <point x="319" y="406"/>
      <point x="319" y="257" type="curve" smooth="yes"/>
      <point x="319" y="82"/>
      <point x="275" y="14"/>
      <point x="191" y="14" type="curve" smooth="yes"/>
      <point x="108" y="14"/>
      <point x="76" y="81"/>
      <point x="76" y="212" type="curve" smooth="yes"/>
      <point x="76" y="260" type="line"/>
      <point x="181" y="260" type="line"/>
      <point x="181" y="282" type="line"/>
      <point x="52" y="282" type="line"/>
      <point x="51" y="265"/>
      <point x="50" y="232"/>
      <point x="50" y="212" type="curve" smooth="yes"/>
      <point x="50" y="59"/>
      <point x="93" y="-9"/>
    </contour>
    <contour>
      <point x="292" y="454" type="line"/>
      <point x="331" y="468"/>
      <point x="361" y="500"/>
      <point x="361" y="551" type="curve"/>
      <point x="334" y="551" type="line"/>
      <point x="334" y="505"/>
      <point x="308" y="482"/>
      <point x="278" y="472" type="curve"/>
    </contour>
  </outline>
</glyph>
<glyph name="paiyannoi-thai" format="2">
  <advance width="360"/>
  <unicode hex="0E2F"/>
  <outline>
    <contour>
      <point x="252" y="-1" type="line"/>
      <point x="278" y="-1" type="line"/>
      <point x="278" y="517" type="line"/>
      <point x="252" y="517" type="line"/>
      <point x="252" y="407" type="line" smooth="yes"/>
      <point x="252" y="316"/>
      <point x="220" y="260"/>
      <point x="147" y="260" type="curve" smooth="yes"/>
      <point x="82" y="260"/>
      <point x="49" y="308"/>
      <point x="49" y="391" type="curve" smooth="yes"/>
      <point x="49" y="469"/>
      <point x="80" y="500"/>
      <point x="120" y="500" type="curve" smooth="yes"/>
      <point x="130" y="500"/>
      <point x="143" y="497"/>
      <point x="152" y="492" type="curve"/>
      <point x="157" y="515" type="line"/>
      <point x="143" y="523"/>
      <point x="129" y="525"/>
      <point x="117" y="525" type="curve" smooth="yes"/>
      <point x="60" y="525"/>
      <point x="22" y="480"/>
      <point x="22" y="396" type="curve" smooth="yes"/>
      <point x="22" y="298"/>
      <point x="63" y="237"/>
      <point x="143" y="237" type="curve" smooth="yes"/>
      <point x="206" y="237"/>
      <point x="238" y="263"/>
      <point x="259" y="321" type="curve"/>
      <point x="252" y="325" type="line"/>
    </contour>
  </outline>
</glyph>
<glyph name="saraA-thai" format="2">
  <advance width="235"/>
  <unicode hex="0E30"/>
  <outline>
    <contour>
      <point x="85" y="366" type="curve" smooth="yes"/>
      <point x="201" y="366" type="line"/>
      <point x="201" y="390" type="line"/>
      <point x="87" y="390" type="line" smooth="yes"/>
      <point x="66" y="390"/>
      <point x="59" y="402"/>
      <point x="59" y="423" type="curve" smooth="yes"/>
      <point x="59" y="434"/>
      <point x="62" y="448"/>
      <point x="64" y="456" type="curve"/>
      <point x="41" y="460" type="line"/>
      <point x="37" y="450"/>
      <point x="34" y="432"/>
      <point x="34" y="419" type="curve" smooth="yes"/>
      <point x="34" y="389"/>
      <point x="49" y="366"/>
    </contour>
    <contour>
      <point x="85" y="86" type="curve" smooth="yes"/>
      <point x="201" y="86" type="line"/>
      <point x="201" y="110" type="line"/>
      <point x="87" y="110" type="line" smooth="yes"/>
      <point x="66" y="110"/>
      <point x="59" y="122"/>
      <point x="59" y="143" type="curve" smooth="yes"/>
      <point x="59" y="154"/>
      <point x="62" y="168"/>
      <point x="64" y="176" type="curve"/>
      <point x="41" y="180" type="line"/>
      <point x="37" y="170"/>
      <point x="34" y="152"/>
      <point x="34" y="139" type="curve" smooth="yes"/>
      <point x="34" y="109"/>
      <point x="49" y="86"/>
    </contour>
  </outline>
</glyph>
<glyph name="maiHanaKat-thai" format="2">
  <unicode hex="0E31"/>
  <anchor x="-71" y="506" name="_top"/>
  <anchor x="-84" y="684" name="top"/>
  <outline>
    <contour>
      <point x="-169" y="606" type="curve" smooth="yes"/>
      <point x="24" y="606" type="line"/>
      <point x="24" y="630" type="line"/>
      <point x="-167" y="630" type="line" smooth="yes"/>
      <point x="-187" y="630"/>
      <point x="-195" y="642"/>
      <point x="-195" y="663" type="curve" smooth="yes"/>
      <point x="-195" y="674"/>
      <point x="-192" y="688"/>
      <point x="-190" y="696" type="curve"/>
      <point x="-213" y="700" type="line"/>
      <point x="-217" y="690"/>
      <point x="-220" y="672"/>
      <point x="-220" y="659" type="curve" smooth="yes"/>
      <point x="-220" y="629"/>
      <point x="-205" y="606"/>
    </contour>
  </outline>
</glyph>
<glyph name="saraAa-thai" format="2">
  <advance width="287"/>
  <unicode hex="0E32"/>
  <outline>
    <contour>
      <point x="197" y="0" type="line"/>
      <point x="223" y="0" type="line"/>
      <point x="223" y="393" type="line" smooth="yes"/>
      <point x="223" y="477"/>
      <point x="189" y="525"/>
      <point x="119" y="525" type="curve" smooth="yes"/>
      <point x="77" y="525"/>
      <point x="41" y="507"/>
      <point x="20" y="494" type="curve"/>
      <point x="20" y="465" type="line"/>
      <point x="48" y="485"/>
      <point x="85" y="500"/>
      <point x="115" y="500" type="curve" smooth="yes"/>
      <point x="173" y="500"/>
      <point x="197" y="461"/>
      <point x="197" y="385" type="curve" smooth="yes"/>
    </contour>
  </outline>
</glyph>
<glyph name="saraIi-thai" format="2">
  <unicode hex="0E35"/>
  <anchor x="-71" y="506" name="_top"/>
  <anchor x="-71" y="742" name="top"/>
  <outline>
    <contour>
      <point x="-350" y="606" type="line"/>
      <point x="-71" y="606" type="line"/>
      <point x="-71" y="630" type="line"/>
      <point x="-325" y="630" type="line"/>
      <point x="-350" y="620" type="line"/>
    </contour>
    <contour>
      <point x="-96" y="624" type="line"/>
      <point x="-71" y="624" type="line"/>
      <point x="-71" y="726" type="line"/>
      <point x="-96" y="726" type="line"/>
    </contour>
  </outline>
</glyph>
<glyph name="saraUe-thai" format="2">
  <unicode hex="0E36"/>
  <anchor x="-71" y="506" name="_top"/>
  <anchor x="-97" y="742" name="top"/>
  <outline>
    <contour>
      <point x="-350" y="606" type="line"/>
      <point x="-118" y="606" type="line" smooth="yes"/>
      <point x="-88" y="606"/>
      <point x="-65" y="627"/>
      <point x="-65" y="670" type="curve" smooth="yes"/>
      <point x="-65" y="713"/>
      <point x="-87" y="734"/>
      <point x="-116" y="734" type="curve" smooth="yes"/>
      <point x="-145" y="734"/>
      <point x="-167" y="714"/>
      <point x="-167" y="671" type="curve" smooth="yes"/>
      <point x="-167" y="649"/>
      <point x="-160" y="627"/>
      <point x="-148" y="617" type="curve"/>
      <point x="-145" y="630" type="line"/>
      <point x="-325" y="630" type="line"/>
      <point x="-350" y="620" type="line"/>
    </contour>
    <contour>
      <point x="-116" y="630" type="curve" smooth="yes"/>
      <point x="-133" y="630"/>
      <point x="-145" y="645"/>
      <point x="-145" y="670" type="curve" smooth="yes"/>
      <point x="-145" y="695"/>
      <point x="-133" y="710"/>
      <point x="-116" y="710" type="curve" smooth="yes"/>
      <point x="-99" y="710"/>
      <point x="-87" y="695"/>
      <point x="-87" y="670" type="curve" smooth="yes"/>
      <point x="-87" y="645"/>
      <point x="-99" y="630"/>
    </contour>
  </outline>
</glyph>
<glyph name="saraUee-thai" format="2">
  <unicode hex="0E37"/>
  <anchor x="-71" y="506" name="_top"/>
  <anchor x="-101" y="742" name="top"/>
  <outline>
    <contour>
      <point x="-350" y="606" type="line"/>
      <point x="-71" y="606" type="line"/>
      <point x="-71" y="630" type="line"/>
      <point x="-325" y="630" type="line"/>
      <point x="-350" y="620" type="line"/>
    </contour>
    <contour>
      <point x="-160" y="624" type="line"/>
      <point x="-138" y="624" type="line"/>
      <point x="-138" y="713" type="line"/>
      <point x="-160" y="713" type="line"/>
    </contour>
    <contour>
      <point x="-94" y="624" type="line"/>
      <point x="-71" y="624" type="line"/>
      <point x="-71" y="713" type="line"/>
      <point x="-94" y="713" type="line"/>
    </contour>
  </outline>
</glyph>
<glyph name="phinthu-thai" format="2">
  <unicode hex="0E3A"/>
  <anchor x="-72" y="0" name="_bottom"/>
  <anchor x="-72" y="-174" name="bottom"/>
  <outline>
    <contour>
      <point x="-87" y="-145" type="curve" smooth="yes"/>
      <point x="-69" y="-145"/>
      <point x="-58" y="-133"/>
      <point x="-58" y="-110" type="curve" smooth="yes"/>
      <point x="-58" y="-87"/>
      <point x="-69" y="-75"/>
      <point x="-87" y="-75" type="curve" smooth="yes"/>
      <point x="-105" y="-75"/>
      <point x="-116" y="-87"/>
      <point x="-116" y="-110" type="curve" smooth="yes"/>
      <point x="-116" y="-133"/>
      <point x="-105" y="-145"/>
    </contour>
  </outline>
</glyph>
<glyph name="baht" format="2">
  <advance width="405"/>
  <unicode hex="0E3F"/>
  <outline>
    <contour>
      <point x="68" y="40" type="line"/>
      <point x="196" y="40" type="line" smooth="yes"/>
      <point x="292" y="40"/>
      <point x="345" y="107"/>
      <point x="345" y="214" type="curve" smooth="yes"/>
      <point x="345" y="300"/>
      <point x="313" y="355"/>
      <point x="241" y="373" type="curve"/>
      <point x="241" y="374" type="line"/>
      <point x="299" y="385"/>
      <point x="331" y="445"/>
      <point x="331" y="527" type="curve" smooth="yes"/>
      <point x="331" y="623"/>
      <point x="286" y="672"/>
      <point x="191" y="672" type="curve" smooth="yes"/>
      <point x="68" y="672" type="line"/>
    </contour>
    <contour>
      <point x="91" y="63" type="line"/>
      <point x="91" y="362" type="line"/>
      <point x="187" y="362" type="line" smooth="yes"/>
      <point x="265" y="362"/>
      <point x="321" y="325"/>
      <point x="321" y="215" type="curve" smooth="yes"/>
      <point x="321" y="111"/>
      <point x="271" y="63"/>
      <point x="191" y="63" type="curve" smooth="yes"/>
    </contour>
    <contour>
      <point x="91" y="383" type="line"/>
      <point x="91" y="650" type="line"/>
      <point x="179" y="650" type="line" smooth="yes"/>
      <point x="275" y="650"/>
      <point x="307" y="610"/>
      <point x="307" y="527" type="curve" smooth="yes"/>
      <point x="307" y="430"/>
      <point x="265" y="383"/>
      <point x="184" y="383" type="curve" smooth="yes"/>
    </contour>
    <contour>
      <point x="179" y="-58" type="line"/>
      <point x="205" y="-58" type="line"/>
      <point x="205" y="760" type="line"/>
      <point x="179" y="760" type="line"/>
    </contour>
  </outline>
</glyph>
<glyph name="saraE-thai" format="2">
  <advance width="191"/>
  <unicode hex="0E40"/>
  <outline>
    <contour>
      <point x="132" y="-9" type="curve" smooth="yes"/>
      <point x="144" y="-9"/>
      <point x="159" y="-6"/>
      <point x="171" y="1" type="curve"/>
      <point x="166" y="24" type="line"/>
      <point x="158" y="19"/>
      <point x="145" y="14"/>
      <point x="135" y="14" type="curve" smooth="yes"/>
      <point x="115" y="14"/>
      <point x="103" y="28"/>
      <point x="103" y="62" type="curve" smooth="yes"/>
      <point x="103" y="517" type="line"/>
      <point x="77" y="517" type="line"/>
      <point x="77" y="57" type="line" smooth="yes"/>
      <point x="77" y="10"/>
      <point x="103" y="-9"/>
    </contour>
  </outline>
</glyph>
<glyph name="saraO-thai" format="2">
  <advance width="205"/>
  <unicode hex="0E42"/>
  <outline>
    <contour>
      <point x="83" y="423" type="line"/>
      <point x="109" y="423" type="line"/>
      <point x="109" y="623" type="line" smooth="yes"/>
      <point x="109" y="682"/>
      <point x="97" y="710"/>
      <point x="74" y="732" type="curve"/>
      <point x="74" y="735" type="line"/>
      <point x="215" y="735" type="line"/>
      <point x="215" y="760" type="line"/>
      <point x="43" y="760" type="line"/>
      <point x="15" y="746" type="line"/>
      <point x="15" y="735" type="line"/>
      <point x="58" y="735"/>
      <point x="83" y="697"/>
      <point x="83" y="635" type="curve" smooth="yes"/>
    </contour>
    <component base="saraE-thai" xOffset="6"/>
  </outline>
</glyph>
<glyph name="saraAiMaimuan-thai" format="2">
  <advance width="186"/>
  <unicode hex="0E43"/>
  <outline>
    <contour>
      <point x="121" y="-9" type="curve" smooth="yes"/>
      <point x="133" y="-9"/>
      <point x="148" y="-6"/>
      <point x="160" y="1" type="curve"/>
      <point x="155" y="24" type="line"/>
      <point x="147" y="19"/>
      <point x="135" y="14"/>
      <point x="124" y="14" type="curve" smooth="yes"/>
      <point x="105" y="14"/>
      <point x="92" y="28"/>
      <point x="92" y="62" type="curve" smooth="yes"/>
      <point x="92" y="447" type="line" smooth="yes"/>
      <point x="92" y="489"/>
      <point x="104" y="506"/>
      <point x="132" y="558" type="curve" smooth="yes"/>
      <point x="153" y="597"/>
      <point x="169" y="627"/>
      <point x="169" y="673" type="curve" smooth="yes"/>
      <point x="169" y="734"/>
      <point x="139" y="766"/>
      <point x="91" y="766" type="curve" smooth="yes"/>
      <point x="62" y="766"/>
      <point x="32" y="753"/>
      <point x="20" y="745" type="curve"/>
      <point x="20" y="718" type="line"/>
      <point x="35" y="728"/>
      <point x="63" y="741"/>
      <point x="89" y="741" type="curve" smooth="yes"/>
      <point x="122" y="741"/>
      <point x="144" y="720"/>
      <point x="144" y="671" type="curve" smooth="yes"/>
      <point x="144" y="634"/>
      <point x="132" y="611"/>
      <point x="110" y="572" type="curve" smooth="yes"/>
      <point x="81" y="521"/>
      <point x="66" y="500"/>
      <point x="66" y="450" type="curve" smooth="yes"/>
      <point x="66" y="57" type="line" smooth="yes"/>
      <point x="66" y="10"/>
      <point x="93" y="-9"/>
    </contour>
  </outline>
</glyph>
<glyph name="saraAiMaimalai-thai" format="2">
  <advance width="184"/>
  <unicode hex="0E44"/>
  <outline>
    <contour>
      <point x="71" y="423" type="line"/>
      <point x="97" y="423" type="line"/>
      <point x="97" y="635" type="line" smooth="yes"/>
      <point x="97" y="702"/>
      <point x="118" y="735"/>
      <point x="159" y="738" type="curve"/>
      <point x="159" y="760" type="line"/>
      <point x="8" y="760" type="line"/>
      <point x="1" y="735" type="line"/>
      <point x="103" y="735" type="line"/>
      <point x="104" y="733" type="line"/>
      <point x="83" y="711"/>
      <point x="71" y="692"/>
      <point x="71" y="623" type="curve" smooth="yes"/>
    </contour>
    <component base="saraE-thai" xOffset="-6"/>
  </outline>
</glyph>
<glyph name="maiyamok-thai" format="2">
  <advance width="409"/>
  <unicode hex="0E46"/>
  <outline>
    <contour>
      <point x="320" y="-180" type="line"/>
      <point x="345" y="-180" type="line"/>
      <point x="345" y="425" type="line" smooth="yes"/>
      <point x="345" y="493"/>
      <point x="313" y="525"/>
      <point x="275" y="525" type="curve" smooth="yes"/>
      <point x="228" y="525"/>
      <point x="216" y="495"/>
      <point x="207" y="462" type="curve"/>
      <point x="205" y="462" type="line"/>
      <point x="196" y="495"/>
      <point x="179" y="525"/>
      <point x="139" y="525" type="curve" smooth="yes"/>
      <point x="93" y="525"/>
      <point x="62" y="482"/>
      <point x="62" y="377" type="curve" smooth="yes"/>
      <point x="62" y="276"/>
      <point x="84" y="223"/>
      <point x="140" y="223" type="curve" smooth="yes"/>
      <point x="153" y="223"/>
      <point x="165" y="224"/>
      <point x="179" y="232" type="curve"/>
      <point x="173" y="255" type="line"/>
      <point x="164" y="250"/>
      <point x="154" y="248"/>
      <point x="144" y="248" type="curve" smooth="yes"/>
      <point x="106" y="248"/>
      <point x="88" y="280"/>
      <point x="88" y="379" type="curve" smooth="yes"/>
      <point x="88" y="463"/>
      <point x="108" y="500"/>
      <point x="143" y="500" type="curve" smooth="yes"/>
      <point x="174" y="500"/>
      <point x="194" y="466"/>
      <point x="194" y="415" type="curve" smooth="yes"/>
      <point x="194" y="376" type="line"/>
      <point x="218" y="376" type="line"/>
      <point x="218" y="415" type="line" smooth="yes"/>
      <point x="218" y="466"/>
      <point x="237" y="500"/>
      <point x="269" y="500" type="curve" smooth="yes"/>
      <point x="300" y="500"/>
      <point x="320" y="475"/>
      <point x="320" y="415" type="curve" smooth="yes"/>
    </contour>
  </outline>
</glyph>
<glyph name="maitaikhu-thai" format="2">
  <unicode hex="0E47"/>
  <anchor x="-72" y="506" name="_top"/>
  <anchor x="-161" y="815" name="top"/>
  <outline>
    <contour>
      <point x="-128" y="596" type="curve" smooth="yes"/>
      <point x="-98" y="596"/>
      <point x="-73" y="620"/>
      <point x="-73" y="669" type="curve" smooth="yes"/>
      <point x="-73" y="683" type="line"/>
      <point x="-96" y="683" type="line"/>
      <point x="-96" y="669" type="line" smooth="yes"/>
      <point x="-96" y="639"/>
      <point x="-109" y="621"/>
      <point x="-131" y="621" type="curve" smooth="yes"/>
      <point x="-156" y="621"/>
      <point x="-172" y="644"/>
      <point x="-179" y="683" type="curve"/>
      <point x="-191" y="683" type="line"/>
      <point x="-236" y="624" type="line"/>
      <point x="-264" y="624"/>
      <point x="-282" y="651"/>
      <point x="-282" y="696" type="curve" smooth="yes"/>
      <point x="-282" y="752"/>
      <point x="-259" y="777"/>
      <point x="-228" y="777" type="curve" smooth="yes"/>
      <point x="-74" y="777" type="line"/>
      <point x="-74" y="802" type="line"/>
      <point x="-234" y="802" type="line" smooth="yes"/>
      <point x="-273" y="802"/>
      <point x="-306" y="765"/>
      <point x="-306" y="700" type="curve" smooth="yes"/>
      <point x="-306" y="635"/>
      <point x="-277" y="599"/>
      <point x="-230" y="599" type="curve"/>
      <point x="-190" y="654" type="line"/>
      <point x="-178" y="618"/>
      <point x="-158" y="596"/>
    </contour>
  </outline>
</glyph>
<glyph name="maiEk-thai" format="2">
  <unicode hex="0E48"/>
  <anchor x="-72" y="506" name="_top"/>
  <anchor x="-72" y="815" name="top"/>
  <outline>
    <contour>
      <point x="-98" y="606" type="line"/>
      <point x="-72" y="606" type="line"/>
      <point x="-72" y="797" type="line"/>
      <point x="-98" y="797" type="line"/>
    </contour>
  </outline>
</glyph>
<glyph name="maiTho-thai" format="2">
  <unicode hex="0E49"/>
  <anchor x="-72" y="506" name="_top"/>
  <anchor x="-131" y="815" name="top"/>
  <outline>
    <contour>
      <point x="-241" y="606" type="line"/>
      <point x="-48" y="606" type="line"/>
      <point x="-48" y="630" type="line"/>
      <point x="-178" y="630" type="line"/>
      <point x="-177" y="633" type="line"/>
      <point x="-158" y="651"/>
      <point x="-141" y="684"/>
      <point x="-141" y="718" type="curve" smooth="yes"/>
      <point x="-141" y="763"/>
      <point x="-161" y="791"/>
      <point x="-195" y="791" type="curve" smooth="yes"/>
      <point x="-208" y="791"/>
      <point x="-225" y="786"/>
      <point x="-242" y="773" type="curve"/>
      <point x="-235" y="752" type="line"/>
      <point x="-224" y="760"/>
      <point x="-211" y="768"/>
      <point x="-200" y="768" type="curve" smooth="yes"/>
      <point x="-177" y="768"/>
      <point x="-166" y="748"/>
      <point x="-166" y="718" type="curve" smooth="yes"/>
      <point x="-166" y="670"/>
      <point x="-201" y="634"/>
      <point x="-241" y="623" type="curve"/>
    </contour>
  </outline>
</glyph>
<glyph name="maiTri-thai" format="2">
  <unicode hex="0E4A"/>
  <anchor x="-72" y="506" name="_top"/>
  <anchor x="-164" y="815" name="top"/>
  <outline>
    <contour>
      <point x="-226" y="601" type="curve" smooth="yes"/>
      <point x="-214" y="601"/>
      <point x="-204" y="604"/>
      <point x="-199" y="608" type="curve"/>
      <point x="-204" y="629" type="line"/>
      <point x="-209" y="626"/>
      <point x="-216" y="624"/>
      <point x="-221" y="624" type="curve" smooth="yes"/>
      <point x="-246" y="624"/>
      <point x="-264" y="647"/>
      <point x="-264" y="691" type="curve" smooth="yes"/>
      <point x="-264" y="741"/>
      <point x="-245" y="759"/>
      <point x="-226" y="762" type="curve"/>
      <point x="-193" y="731" type="line"/>
      <point x="-186" y="731" type="line"/>
      <point x="-153" y="762" type="line"/>
      <point x="-134" y="754"/>
      <point x="-115" y="737"/>
      <point x="-115" y="690" type="curve" smooth="yes"/>
      <point x="-115" y="659"/>
      <point x="-129" y="631"/>
      <point x="-151" y="621" type="curve"/>
      <point x="-151" y="606" type="line"/>
      <point x="-46" y="606" type="line"/>
      <point x="-46" y="627" type="line"/>
      <point x="-110" y="627" type="line"/>
      <point x="-110" y="631" type="line"/>
      <point x="-97" y="647"/>
      <point x="-91" y="670"/>
      <point x="-91" y="696" type="curve" smooth="yes"/>
      <point x="-91" y="744"/>
      <point x="-114" y="776"/>
      <point x="-152" y="789" type="curve"/>
      <point x="-190" y="752" type="line"/>
      <point x="-227" y="789" type="line"/>
      <point x="-263" y="783"/>
      <point x="-288" y="749"/>
      <point x="-288" y="692" type="curve" smooth="yes"/>
      <point x="-288" y="634"/>
      <point x="-262" y="601"/>
    </contour>
  </outline>
</glyph>
<glyph name="maiChattawa-thai" format="2">
  <unicode hex="0E4B"/>
  <anchor x="-71" y="506" name="_top"/>
  <anchor x="-128" y="815" name="top"/>
  <outline>
    <contour>
      <point x="-153" y="606" type="line"/>
      <point x="-129" y="606" type="line"/>
      <point x="-129" y="797" type="line"/>
      <point x="-153" y="797" type="line"/>
    </contour>
    <contour>
      <point x="-212" y="688" type="line"/>
      <point x="-70" y="688" type="line"/>
      <point x="-70" y="711" type="line"/>
      <point x="-212" y="711" type="line"/>
    </contour>
  </outline>
</glyph>
<glyph name="thanthakhat-thai" format="2">
  <unicode hex="0E4C"/>
  <anchor x="-72" y="506" name="_top"/>
  <anchor x="-97" y="741" name="top"/>
  <outline>
    <contour>
      <point x="-193" y="605" type="curve"/>
      <point x="-170" y="610" type="line"/>
      <point x="-174" y="619"/>
      <point x="-176" y="630"/>
      <point x="-176" y="640" type="curve" smooth="yes"/>
      <point x="-176" y="661"/>
      <point x="-168" y="673"/>
      <point x="-146" y="673" type="curve" smooth="yes"/>
      <point x="-48" y="673" type="line"/>
      <point x="-48" y="697" type="line"/>
      <point x="-152" y="697" type="line" smooth="yes"/>
      <point x="-185" y="697"/>
      <point x="-201" y="677"/>
      <point x="-201" y="645" type="curve" smooth="yes"/>
      <point x="-201" y="630"/>
      <point x="-198" y="616"/>
    </contour>
  </outline>
</glyph>
<glyph name="nikhahit-thai" format="2">
  <unicode hex="0E4D"/>
  <anchor x="-71" y="506" name="_top"/>
  <anchor x="-82" y="742" name="top"/>
  <outline>
    <contour>
      <point x="-99" y="580" type="curve" smooth="yes"/>
      <point x="-63" y="580"/>
      <point x="-36" y="607"/>
      <point x="-36" y="661" type="curve" smooth="yes"/>
      <point x="-36" y="715"/>
      <point x="-63" y="742"/>
      <point x="-99" y="742" type="curve" smooth="yes"/>
      <point x="-134" y="742"/>
      <point x="-162" y="715"/>
      <point x="-162" y="661" type="curve" smooth="yes"/>
      <point x="-162" y="607"/>
      <point x="-134" y="580"/>
    </contour>
    <contour>
      <point x="-99" y="602" type="curve" smooth="yes"/>
      <point x="-125" y="602"/>
      <point x="-140" y="625"/>
      <point x="-140" y="661" type="curve" smooth="yes"/>
      <point x="-140" y="697"/>
      <point x="-125" y="720"/>
      <point x="-99" y="720" type="curve" smooth="yes"/>
      <point x="-73" y="720"/>
      <point x="-57" y="697"/>
      <point x="-57" y="661" type="curve" smooth="yes"/>
      <point x="-57" y="625"/>
      <point x="-73" y="602"/>
    </contour>
  </outline>
</glyph>
<glyph name="yamakkan-thai" format="2">
  <unicode hex="0E4E"/>
  <anchor x="-71" y="506" name="_top"/>
  <anchor x="-75" y="741" name="top"/>
  <outline>
    <contour>
      <point x="-171" y="584" type="curve"/>
      <point x="-150" y="588" type="line"/>
      <point x="-153" y="596"/>
      <point x="-156" y="607"/>
      <point x="-156" y="616" type="curve" smooth="yes"/>
      <point x="-156" y="639"/>
      <point x="-147" y="654"/>
      <point x="-127" y="654" type="curve" smooth="yes"/>
      <point x="-118" y="654"/>
      <point x="-108" y="646"/>
      <point x="-100" y="638" type="curve"/>
      <point x="-83" y="655" type="line"/>
      <point x="-87" y="664"/>
      <point x="-89" y="673"/>
      <point x="-89" y="681" type="curve" smooth="yes"/>
      <point x="-89" y="706"/>
      <point x="-78" y="714"/>
      <point x="-62" y="714" type="curve" smooth="yes"/>
      <point x="-57" y="714"/>
      <point x="-49" y="713"/>
      <point x="-40" y="710" type="curve"/>
      <point x="-40" y="730" type="line"/>
      <point x="-47" y="735"/>
      <point x="-58" y="738"/>
      <point x="-69" y="738" type="curve" smooth="yes"/>
      <point x="-91" y="738"/>
      <point x="-110" y="720"/>
      <point x="-110" y="689" type="curve" smooth="yes"/>
      <point x="-110" y="682"/>
      <point x="-109" y="674"/>
      <point x="-106" y="668" type="curve"/>
      <point x="-105" y="666" type="line"/>
      <point x="-112" y="672"/>
      <point x="-122" y="676"/>
      <point x="-134" y="676" type="curve" smooth="yes"/>
      <point x="-155" y="676"/>
      <point x="-178" y="660"/>
      <point x="-178" y="619" type="curve" smooth="yes"/>
      <point x="-178" y="608"/>
      <point x="-175" y="593"/>
    </contour>
  </outline>
</glyph>
<glyph name="zero-thai" format="2">
  <advance width="395"/>
  <unicode hex="0E50"/>
  <outline>
    <contour>
      <point x="197" y="-10" type="curve" smooth="yes"/>
      <point x="295" y="-10"/>
      <point x="347" y="79"/>
      <point x="347" y="227" type="curve" smooth="yes"/>
      <point x="347" y="381"/>
      <point x="295" y="463"/>
      <point x="197" y="463" type="curve" smooth="yes"/>
      <point x="100" y="463"/>
      <point x="48" y="381"/>
      <point x="48" y="227" type="curve" smooth="yes"/>
      <point x="48" y="79"/>
      <point x="100" y="-10"/>
    </contour>
    <contour>
      <point x="197" y="15" type="curve" smooth="yes"/>
      <point x="117" y="15"/>
      <point x="75" y="96"/>
      <point x="75" y="227" type="curve" smooth="yes"/>
      <point x="75" y="365"/>
      <point x="117" y="438"/>
      <point x="197" y="438" type="curve" smooth="yes"/>
      <point x="277" y="438"/>
      <point x="320" y="365"/>
      <point x="320" y="227" type="curve" smooth="yes"/>
      <point x="320" y="96"/>
      <point x="277" y="15"/>
    </contour>
  </outline>
</glyph>
<glyph name="two-thai" format="2">
  <advance width="422"/>
  <unicode hex="0E52"/>
  <outline>
    <contour>
      <point x="223" y="-10" type="curve" smooth="yes"/>
      <point x="338" y="-10"/>
      <point x="382" y="79"/>
      <point x="382" y="192" type="curve" smooth="yes"/>
      <point x="382" y="369" type="line" smooth="yes"/>
      <point x="382" y="435"/>
      <point x="354" y="463"/>
      <point x="321" y="463" type="curve" smooth="yes"/>
      <point x="292" y="463"/>
      <point x="271" y="440"/>
      <point x="265" y="406" type="curve"/>
      <point x="264" y="406" type="line"/>
      <point x="257" y="438"/>
      <point x="238" y="463"/>
      <point x="209" y="463" type="curve" smooth="yes"/>
      <point x="174" y="463"/>
      <point x="146" y="432"/>
      <point x="146" y="343" type="curve" smooth="yes"/>
      <point x="146" y="262"/>
      <point x="168" y="221"/>
      <point x="215" y="221" type="curve" smooth="yes"/>
      <point x="227" y="221"/>
      <point x="238" y="224"/>
      <point x="249" y="232" type="curve"/>
      <point x="244" y="254" type="line"/>
      <point x="237" y="249"/>
      <point x="227" y="246"/>
      <point x="218" y="246" type="curve" smooth="yes"/>
      <point x="185" y="246"/>
      <point x="171" y="277"/>
      <point x="171" y="344" type="curve" smooth="yes"/>
      <point x="171" y="408"/>
      <point x="187" y="438"/>
      <point x="213" y="438" type="curve" smooth="yes"/>
      <point x="241" y="438"/>
      <point x="252" y="409"/>
      <point x="254" y="358" type="curve"/>
      <point x="274" y="358" type="line"/>
      <point x="276" y="406"/>
      <point x="286" y="438"/>
      <point x="316" y="438" type="curve" smooth="yes"/>
      <point x="341" y="438"/>
      <point x="356" y="416"/>
      <point x="356" y="364" type="curve" smooth="yes"/>
      <point x="356" y="197" type="line" smooth="yes"/>
      <point x="356" y="92"/>
      <point x="324" y="15"/>
      <point x="223" y="15" type="curve" smooth="yes"/>
      <point x="123" y="15"/>
      <point x="82" y="92"/>
      <point x="82" y="197" type="curve" smooth="yes"/>
      <point x="82" y="584" type="line"/>
      <point x="56" y="584" type="line"/>
      <point x="56" y="192" type="line" smooth="yes"/>
      <point x="56" y="79"/>
      <point x="109" y="-10"/>
    </contour>
  </outline>
</glyph>
<glyph name="three-thai" format="2">
  <advance width="387"/>
  <unicode hex="0E53"/>
  <outline>
    <contour>
      <point x="148" y="-10" type="curve" smooth="yes"/>
      <point x="160" y="-10"/>
      <point x="174" y="-7"/>
      <point x="183" y="-1" type="curve"/>
      <point x="180" y="21" type="line"/>
      <point x="173" y="17"/>
      <point x="163" y="14"/>
      <point x="155" y="14" type="curve" smooth="yes"/>
      <point x="97" y="14"/>
      <point x="74" y="90"/>
      <point x="74" y="248" type="curve" smooth="yes"/>
      <point x="74" y="398"/>
      <point x="106" y="438"/>
      <point x="139" y="438" type="curve" smooth="yes"/>
      <point x="159" y="438"/>
      <point x="181" y="424"/>
      <point x="186" y="367" type="curve"/>
      <point x="206" y="367" type="line"/>
      <point x="211" y="424"/>
      <point x="236" y="438"/>
      <point x="259" y="438" type="curve" smooth="yes"/>
      <point x="287" y="438"/>
      <point x="309" y="413"/>
      <point x="309" y="358" type="curve" smooth="yes"/>
      <point x="309" y="0" type="line"/>
      <point x="335" y="0" type="line"/>
      <point x="335" y="357" type="line" smooth="yes"/>
      <point x="335" y="428"/>
      <point x="303" y="463"/>
      <point x="264" y="463" type="curve" smooth="yes"/>
      <point x="234" y="463"/>
      <point x="206" y="446"/>
      <point x="197" y="400" type="curve"/>
      <point x="196" y="400" type="line"/>
      <point x="187" y="446"/>
      <point x="163" y="463"/>
      <point x="135" y="463" type="curve" smooth="yes"/>
      <point x="90" y="463"/>
      <point x="48" y="415"/>
      <point x="48" y="246" type="curve" smooth="yes"/>
      <point x="48" y="73"/>
      <point x="78" y="-10"/>
    </contour>
  </outline>
</glyph>
<glyph name="four-thai" format="2">
  <advance width="375"/>
  <unicode hex="0E54"/>
  <outline>
    <contour>
      <point x="183" y="0" type="curve" smooth="yes"/>
      <point x="338" y="0" type="line"/>
      <point x="338" y="24" type="line"/>
      <point x="303" y="24" type="line" smooth="yes"/>
      <point x="271" y="24"/>
      <point x="243" y="74"/>
      <point x="243" y="150" type="curve" smooth="yes"/>
      <point x="243" y="210"/>
      <point x="261" y="236"/>
      <point x="285" y="236" type="curve" smooth="yes"/>
      <point x="289" y="236"/>
      <point x="296" y="235"/>
      <point x="302" y="232" type="curve"/>
      <point x="309" y="254" type="line"/>
      <point x="302" y="258"/>
      <point x="292" y="260"/>
      <point x="282" y="260" type="curve" smooth="yes"/>
      <point x="248" y="260"/>
      <point x="219" y="231"/>
      <point x="219" y="152" type="curve" smooth="yes"/>
      <point x="219" y="95"/>
      <point x="233" y="47"/>
      <point x="264" y="17" type="curve"/>
      <point x="266" y="25" type="line"/>
      <point x="186" y="25" type="line" smooth="yes"/>
      <point x="110" y="25"/>
      <point x="74" y="79"/>
      <point x="74" y="228" type="curve" smooth="yes"/>
      <point x="74" y="383"/>
      <point x="112" y="435"/>
      <point x="180" y="435" type="curve" smooth="yes"/>
      <point x="234" y="435" type="line" smooth="yes"/>
      <point x="293" y="435"/>
      <point x="317" y="474"/>
      <point x="317" y="539" type="curve" smooth="yes"/>
      <point x="317" y="584" type="line"/>
      <point x="291" y="584" type="line"/>
      <point x="291" y="543" type="line" smooth="yes"/>
      <point x="291" y="486"/>
      <point x="278" y="459"/>
      <point x="225" y="459" type="curve" smooth="yes"/>
      <point x="174" y="459" type="line" smooth="yes"/>
      <point x="92" y="459"/>
      <point x="48" y="400"/>
      <point x="48" y="229" type="curve" smooth="yes"/>
      <point x="48" y="64"/>
      <point x="93" y="0"/>
    </contour>
  </outline>
</glyph>
<glyph name="seven-thai" format="2">
  <advance width="494"/>
  <unicode hex="0E57"/>
  <outline>
    <contour>
      <point x="149" y="-10" type="curve" smooth="yes"/>
      <point x="161" y="-10"/>
      <point x="174" y="-7"/>
      <point x="183" y="-1" type="curve"/>
      <point x="180" y="22" type="line"/>
      <point x="173" y="18"/>
      <point x="163" y="14"/>
      <point x="155" y="14" type="curve" smooth="yes"/>
      <point x="96" y="14"/>
      <point x="74" y="86"/>
      <point x="74" y="249" type="curve" smooth="yes"/>
      <point x="74" y="404"/>
      <point x="104" y="438"/>
      <point x="135" y="438" type="curve" smooth="yes"/>
      <point x="158" y="438"/>
      <point x="175" y="420"/>
      <point x="180" y="367" type="curve"/>
      <point x="200" y="367" type="line"/>
      <point x="205" y="420"/>
      <point x="224" y="438"/>
      <point x="248" y="438" type="curve" smooth="yes"/>
      <point x="277" y="438"/>
      <point x="294" y="411"/>
      <point x="294" y="361" type="curve" smooth="yes"/>
      <point x="294" y="0" type="line"/>
      <point x="316" y="0" type="line" smooth="yes"/>
      <point x="385" y="0"/>
      <point x="439" y="42"/>
      <point x="439" y="155" type="curve" smooth="yes"/>
      <point x="439" y="584" type="line"/>
      <point x="413" y="584" type="line"/>
      <point x="413" y="154" type="line" smooth="yes"/>
      <point x="413" y="55"/>
      <point x="374" y="25"/>
      <point x="319" y="25" type="curve"/>
      <point x="319" y="365" type="line" smooth="yes"/>
      <point x="319" y="431"/>
      <point x="289" y="463"/>
      <point x="254" y="463" type="curve" smooth="yes"/>
      <point x="226" y="463"/>
      <point x="201" y="446"/>
      <point x="191" y="400" type="curve"/>
      <point x="190" y="400" type="line"/>
      <point x="181" y="446"/>
      <point x="161" y="463"/>
      <point x="132" y="463" type="curve" smooth="yes"/>
      <point x="96" y="463"/>
      <point x="48" y="434"/>
      <point x="48" y="249" type="curve" smooth="yes"/>
      <point x="48" y="70"/>
      <point x="78" y="-10"/>
    </contour>
  </outline>
</glyph>
<glyph name="angkhankhu-thai" format="2">
  <advance width="523"/>
  <unicode hex="0E5A"/>
  <outline>
    <contour>
      <point x="252" y="-1" type="line"/>
      <point x="278" y="-1" type="line"/>
      <point x="278" y="517" type="line"/>
      <point x="252" y="517" type="line"/>
      <point x="252" y="407" type="line" smooth="yes"/>
      <point x="252" y="316"/>
      <point x="220" y="260"/>
      <point x="148" y="260" type="curve" smooth="yes"/>
      <point x="81" y="260"/>
      <point x="49" y="308"/>
      <point x="49" y="391" type="curve" smooth="yes"/>
      <point x="49" y="469"/>
      <point x="79" y="500"/>
      <point x="121" y="500" type="curve" smooth="yes"/>
      <point x="130" y="500"/>
      <point x="143" y="497"/>
      <point x="152" y="492" type="curve"/>
      <point x="157" y="515" type="line"/>
      <point x="143" y="523"/>
      <point x="129" y="525"/>
      <point x="117" y="525" type="curve" smooth="yes"/>
      <point x="60" y="525"/>
      <point x="22" y="480"/>
      <point x="22" y="396" type="curve" smooth="yes"/>
      <point x="22" y="298"/>
      <point x="63" y="237"/>
      <point x="144" y="237" type="curve" smooth="yes"/>
      <point x="205" y="237"/>
      <point x="240" y="264"/>
      <point x="259" y="321" type="curve"/>
      <point x="252" y="326" type="line"/>
    </contour>
    <contour>
      <point x="415" y="-1" type="line"/>
      <point x="441" y="-1" type="line"/>
      <point x="441" y="517" type="line"/>
      <point x="415" y="517" type="line"/>
      <point x="415" y="412" type="line" smooth="yes"/>
      <point x="415" y="305"/>
      <point x="374" y="269"/>
      <point x="316" y="269" type="curve" smooth="yes"/>
      <point x="298" y="269"/>
      <point x="282" y="275"/>
      <point x="273" y="280" type="curve"/>
      <point x="267" y="259" type="line"/>
      <point x="281" y="251"/>
      <point x="300" y="246"/>
      <point x="319" y="246" type="curve" smooth="yes"/>
      <point x="368" y="246"/>
      <point x="407" y="270"/>
      <point x="420" y="331" type="curve"/>
      <point x="415" y="334" type="line"/>
    </contour>
  </outline>
</glyph>
<glyph name="loChula-thai.short" format="2">
  <advance width="443"/>
  <anchor x="357" y="0" name="bottom"/>
  <anchor x="362" y="506" name="top"/>
  <outline>
    <contour>
      <point x="88" y="0" type="line"/>
      <point x="113" y="0" type="line"/>
      <point x="193" y="255" type="line" smooth="yes"/>
      <point x="202" y="284"/>
      <point x="212" y="322"/>
      <point x="219" y="359" type="curve"/>
      <point x="221" y="359" type="line"/>
      <point x="228" y="322"/>
      <point x="238" y="284"/>
      <point x="247" y="255" type="curve" smooth="yes"/>
      <point x="326" y="0" type="line"/>
      <point x="352" y="0" type="line"/>
      <point x="391" y="345" type="line" smooth="yes"/>
      <point x="398" y="406"/>
      <point x="391" y="440"/>
      <point x="364" y="458" type="curve"/>
      <point x="364" y="461" type="line"/>
      <point x="399" y="468"/>
      <point x="423" y="490"/>
      <point x="423" y="551" type="curve"/>
      <point x="399" y="551" type="line"/>
      <point x="398" y="495"/>
      <point x="377" y="478"/>
      <point x="324" y="478" type="curve" smooth="yes"/>
      <point x="268" y="478" type="line"/>
      <point x="268" y="456" type="line"/>
      <point x="298" y="456" type="line" smooth="yes"/>
      <point x="363" y="456"/>
      <point x="378" y="431"/>
      <point x="368" y="336" type="curve" smooth="yes"/>
      <point x="353" y="198" type="line" smooth="yes"/>
      <point x="349" y="160"/>
      <point x="342" y="107"/>
      <point x="337" y="47" type="curve"/>
      <point x="334" y="47" type="line"/>
      <point x="319" y="99"/>
      <point x="307" y="137"/>
      <point x="291" y="189" type="curve" smooth="yes"/>
      <point x="228" y="393" type="line"/>
      <point x="211" y="393" type="line"/>
      <point x="148" y="189" type="line" smooth="yes"/>
      <point x="131" y="134"/>
      <point x="121" y="102"/>
      <point x="108" y="51" type="curve"/>
      <point x="105" y="51" type="line"/>
      <point x="101" y="111"/>
      <point x="96" y="160"/>
      <point x="92" y="199" type="curve" smooth="yes"/>
      <point x="61" y="517" type="line"/>
      <point x="37" y="517" type="line"/>
    </contour>
  </outline>
</glyph>
<glyph name="lu-thai.short" format="2">
  <advance width="407"/>
  <anchor x="343" y="-85" name="bottom"/>
  <anchor x="337" y="506" name="top"/>
  <outline>
    <contour>
      <point x="317" y="-103" type="line"/>
      <point x="343" y="-103" type="line"/>
      <point x="343" y="94" type="line"/>
      <point x="317" y="94" type="line"/>
    </contour>
    <component base="phoSamphao-thai"/>
  </outline>
</glyph>
<glyph name="lu_lakkhangyao-thai" format="2">
  <advance width="642"/>
  <outline>
    <contour>
      <point x="317" y="-180" type="line"/>
      <point x="343" y="-180" type="line"/>
      <point x="343" y="353" type="line" smooth="yes"/>
      <point x="343" y="442"/>
      <point x="384" y="500"/>
      <point x="450" y="500" type="curve" smooth="yes"/>
      <point x="511" y="500"/>
      <point x="552" y="450"/>
      <point x="552" y="356" type="curve" smooth="yes"/>
      <point x="552" y="-180" type="line"/>
      <point x="578" y="-180" type="line"/>
      <point x="578" y="362" type="line" smooth="yes"/>
      <point x="578" y="464"/>
      <point x="528" y="525"/>
      <point x="453" y="525" type="curve" smooth="yes"/>
      <point x="393" y="525"/>
      <point x="346" y="483"/>
      <point x="331" y="412" type="curve"/>
      <point x="328" y="412" type="line"/>
      <point x="312" y="478"/>
      <point x="271" y="525"/>
      <point x="199" y="525" type="curve" smooth="yes"/>
      <point x="107" y="525"/>
      <point x="53" y="454"/>
      <point x="53" y="381" type="curve" smooth="yes"/>
      <point x="53" y="363" type="line"/>
      <point x="134" y="320" type="line"/>
      <point x="133" y="318" type="line"/>
      <point x="94" y="305"/>
      <point x="68" y="275"/>
      <point x="68" y="200" type="curve" smooth="yes"/>
      <point x="68" y="59" type="line" smooth="yes"/>
      <point x="68" y="28"/>
      <point x="64" y="15"/>
      <point x="47" y="15" type="curve" smooth="yes"/>
      <point x="39" y="15"/>
      <point x="32" y="18"/>
      <point x="25" y="22" type="curve"/>
      <point x="20" y="-1" type="line"/>
      <point x="30" y="-7"/>
      <point x="42" y="-9"/>
      <point x="52" y="-9" type="curve" smooth="yes"/>
      <point x="76" y="-9"/>
      <point x="94" y="7"/>
      <point x="94" y="54" type="curve" smooth="yes"/>
      <point x="94" y="200" type="line" smooth="yes"/>
      <point x="94" y="268"/>
      <point x="119" y="295"/>
      <point x="156" y="300" type="curve"/>
      <point x="160" y="330" type="line"/>
      <point x="80" y="378" type="line"/>
      <point x="80" y="446"/>
      <point x="126" y="500"/>
      <point x="196" y="500" type="curve" smooth="yes"/>
      <point x="268" y="500"/>
      <point x="317" y="442"/>
      <point x="317" y="351" type="curve" smooth="yes"/>
    </contour>
  </outline>
</glyph>
<glyph name="macronbelowcomb.alt" format="2">
  <anchor x="-87" y="0" name="_bottom"/>
  <outline>
    <contour>
      <point x="-120" y="-99" type="line"/>
      <point x="-523" y="-99" type="line"/>
      <point x="-523" y="-123" type="line"/>
      <point x="-120" y="-123" type="line"/>
    </contour>
  </outline>
</glyph>
<glyph name="maiChattawa-thai.narrow" format="2">
  <anchor x="-141" y="506" name="_top"/>
  <anchor x="-216" y="814" name="top"/>
  <outline>
    <contour>
      <point x="-241" y="606" type="line"/>
      <point x="-217" y="606" type="line"/>
      <point x="-217" y="797" type="line"/>
      <point x="-241" y="797" type="line"/>
    </contour>
    <contour>
      <point x="-300" y="688" type="line"/>
      <point x="-158" y="688" type="line"/>
      <point x="-158" y="711" type="line"/>
      <point x="-300" y="711" type="line"/>
    </contour>
  </outline>
</glyph>
<glyph name="maiChattawa-thai.small" format="2">
  <anchor x="-72" y="742" name="_top"/>
  <anchor x="-70" y="959" name="top"/>
  <outline>
    <contour>
      <point x="-96" y="795" type="line"/>
      <point x="-72" y="795" type="line"/>
      <point x="-72" y="941" type="line"/>
      <point x="-96" y="941" type="line"/>
    </contour>
    <contour>
      <point x="-136" y="856" type="line"/>
      <point x="-33" y="856" type="line"/>
      <point x="-33" y="879" type="line"/>
      <point x="-136" y="879" type="line"/>
    </contour>
  </outline>
</glyph>
<glyph name="maiEk-thai.narrow" format="2">
  <anchor x="-144" y="506" name="_top"/>
  <anchor x="-201" y="815" name="top"/>
  <outline>
    <contour>
      <point x="-226" y="606" type="line"/>
      <point x="-200" y="606" type="line"/>
      <point x="-200" y="797" type="line"/>
      <point x="-226" y="797" type="line"/>
    </contour>
  </outline>
</glyph>
<glyph name="maiEk-thai.small" format="2">
  <anchor x="-72" y="742" name="_top"/>
  <anchor x="-72" y="959" name="top"/>
  <outline>
    <contour>
      <point x="-97" y="795" type="line"/>
      <point x="-72" y="795" type="line"/>
      <point x="-72" y="938" type="line"/>
      <point x="-97" y="938" type="line"/>
    </contour>
  </outline>
</glyph>
<glyph name="maiHanaKat-thai.narrow" format="2">
  <anchor x="-140" y="506" name="_top"/>
  <anchor x="-204" y="680" name="top"/>
  <outline>
    <contour>
      <point x="-274" y="606" type="curve" smooth="yes"/>
      <point x="-140" y="606" type="line"/>
      <point x="-140" y="630" type="line"/>
      <point x="-272" y="630" type="line" smooth="yes"/>
      <point x="-292" y="630"/>
      <point x="-300" y="642"/>
      <point x="-300" y="663" type="curve" smooth="yes"/>
      <point x="-300" y="674"/>
      <point x="-297" y="688"/>
      <point x="-295" y="696" type="curve"/>
      <point x="-318" y="700" type="line"/>
      <point x="-322" y="690"/>
      <point x="-325" y="672"/>
      <point x="-325" y="659" type="curve" smooth="yes"/>
      <point x="-325" y="629"/>
      <point x="-310" y="606"/>
    </contour>
  </outline>
</glyph>
<glyph name="maiTho-thai.narrow" format="2">
  <anchor x="-140" y="506" name="_top"/>
  <anchor x="-196" y="815" name="top"/>
  <outline>
    <contour>
      <point x="-303" y="606" type="line"/>
      <point x="-140" y="606" type="line"/>
      <point x="-140" y="630" type="line"/>
      <point x="-241" y="630" type="line"/>
      <point x="-239" y="633" type="line"/>
      <point x="-216" y="652"/>
      <point x="-201" y="681"/>
      <point x="-201" y="718" type="curve" smooth="yes"/>
      <point x="-201" y="763"/>
      <point x="-221" y="791"/>
      <point x="-255" y="791" type="curve" smooth="yes"/>
      <point x="-267" y="791"/>
      <point x="-285" y="786"/>
      <point x="-302" y="773" type="curve"/>
      <point x="-295" y="752" type="line"/>
      <point x="-284" y="760"/>
      <point x="-271" y="768"/>
      <point x="-260" y="768" type="curve" smooth="yes"/>
      <point x="-236" y="768"/>
      <point x="-226" y="748"/>
      <point x="-226" y="718" type="curve" smooth="yes"/>
      <point x="-226" y="670"/>
      <point x="-261" y="634"/>
      <point x="-303" y="623" type="curve"/>
    </contour>
  </outline>
</glyph>
<glyph name="maiTho-thai.small" format="2">
  <anchor x="-72" y="742" name="_top"/>
  <anchor x="-72" y="959" name="top"/>
  <outline>
    <contour>
      <point x="-149" y="795" type="line"/>
      <point x="-4" y="795" type="line"/>
      <point x="-4" y="819" type="line"/>
      <point x="-92" y="819" type="line"/>
      <point x="-92" y="822" type="line"/>
      <point x="-75" y="836"/>
      <point x="-68" y="856"/>
      <point x="-68" y="883" type="curve" smooth="yes"/>
      <point x="-68" y="918"/>
      <point x="-85" y="938"/>
      <point x="-110" y="938" type="curve" smooth="yes"/>
      <point x="-121" y="938"/>
      <point x="-135" y="934"/>
      <point x="-150" y="924" type="curve"/>
      <point x="-142" y="902" type="line"/>
      <point x="-134" y="909"/>
      <point x="-125" y="915"/>
      <point x="-114" y="915" type="curve" smooth="yes"/>
      <point x="-99" y="915"/>
      <point x="-91" y="903"/>
      <point x="-91" y="883" type="curve" smooth="yes"/>
      <point x="-91" y="855"/>
      <point x="-109" y="823"/>
      <point x="-149" y="812" type="curve"/>
    </contour>
  </outline>
</glyph>
<glyph name="maiTri-thai.narrow" format="2">
  <anchor x="-141" y="506" name="_top"/>
  <anchor x="-218" y="815" name="top"/>
  <outline>
    <contour>
      <point x="-295" y="601" type="curve" smooth="yes"/>
      <point x="-285" y="601"/>
      <point x="-276" y="604"/>
      <point x="-270" y="608" type="curve"/>
      <point x="-275" y="629" type="line"/>
      <point x="-280" y="626"/>
      <point x="-286" y="624"/>
      <point x="-292" y="624" type="curve" smooth="yes"/>
      <point x="-314" y="624"/>
      <point x="-330" y="647"/>
      <point x="-330" y="693" type="curve" smooth="yes"/>
      <point x="-330" y="740"/>
      <point x="-313" y="759"/>
      <point x="-296" y="762" type="curve"/>
      <point x="-266" y="731" type="line"/>
      <point x="-260" y="731" type="line"/>
      <point x="-231" y="762" type="line"/>
      <point x="-212" y="754"/>
      <point x="-196" y="733"/>
      <point x="-196" y="693" type="curve" smooth="yes"/>
      <point x="-196" y="656"/>
      <point x="-210" y="631"/>
      <point x="-229" y="621" type="curve"/>
      <point x="-229" y="606" type="line"/>
      <point x="-138" y="606" type="line"/>
      <point x="-138" y="627" type="line"/>
      <point x="-192" y="627" type="line"/>
      <point x="-192" y="630" type="line"/>
      <point x="-179" y="646"/>
      <point x="-173" y="670"/>
      <point x="-173" y="695" type="curve" smooth="yes"/>
      <point x="-173" y="748"/>
      <point x="-197" y="777"/>
      <point x="-230" y="789" type="curve"/>
      <point x="-263" y="753" type="line"/>
      <point x="-297" y="789" type="line"/>
      <point x="-330" y="783"/>
      <point x="-353" y="749"/>
      <point x="-353" y="692" type="curve" smooth="yes"/>
      <point x="-353" y="634"/>
      <point x="-329" y="601"/>
    </contour>
  </outline>
</glyph>
<glyph name="maiTri-thai.small" format="2">
  <anchor x="-71" y="742" name="_top"/>
  <anchor x="-71" y="959" name="top"/>
  <outline>
    <contour>
      <point x="-130" y="790" type="curve" smooth="yes"/>
      <point x="-120" y="790"/>
      <point x="-112" y="793"/>
      <point x="-107" y="796" type="curve"/>
      <point x="-112" y="817" type="line"/>
      <point x="-117" y="814"/>
      <point x="-122" y="813"/>
      <point x="-126" y="813" type="curve" smooth="yes"/>
      <point x="-148" y="813"/>
      <point x="-159" y="837"/>
      <point x="-159" y="867" type="curve" smooth="yes"/>
      <point x="-159" y="904"/>
      <point x="-143" y="916"/>
      <point x="-131" y="919" type="curve"/>
      <point x="-98" y="884" type="line"/>
      <point x="-94" y="884" type="line"/>
      <point x="-62" y="918" type="line"/>
      <point x="-50" y="913"/>
      <point x="-37" y="898"/>
      <point x="-37" y="869" type="curve" smooth="yes"/>
      <point x="-37" y="842"/>
      <point x="-49" y="820"/>
      <point x="-67" y="810" type="curve"/>
      <point x="-67" y="795" type="line"/>
      <point x="30" y="795" type="line"/>
      <point x="30" y="816" type="line"/>
      <point x="-31" y="816" type="line"/>
      <point x="-31" y="819" type="line"/>
      <point x="-19" y="833"/>
      <point x="-15" y="855"/>
      <point x="-15" y="872" type="curve" smooth="yes"/>
      <point x="-15" y="907"/>
      <point x="-33" y="932"/>
      <point x="-63" y="942" type="curve"/>
      <point x="-96" y="907" type="line"/>
      <point x="-129" y="942" type="line"/>
      <point x="-159" y="936"/>
      <point x="-182" y="913"/>
      <point x="-182" y="866" type="curve" smooth="yes"/>
      <point x="-182" y="821"/>
      <point x="-161" y="790"/>
    </contour>
  </outline>
</glyph>
<glyph name="maitaikhu-thai.narrow" format="2">
  <anchor x="-141" y="506" name="_top"/>
  <anchor x="-236" y="794" name="top"/>
  <outline>
    <contour>
      <point x="-190" y="591" type="curve" smooth="yes"/>
      <point x="-162" y="591"/>
      <point x="-139" y="612"/>
      <point x="-139" y="664" type="curve" smooth="yes"/>
      <point x="-139" y="678" type="line"/>
      <point x="-162" y="678" type="line"/>
      <point x="-162" y="664" type="line" smooth="yes"/>
      <point x="-162" y="631"/>
      <point x="-173" y="616"/>
      <point x="-193" y="616" type="curve" smooth="yes"/>
      <point x="-214" y="616"/>
      <point x="-228" y="639"/>
      <point x="-235" y="678" type="curve"/>
      <point x="-247" y="678" type="line"/>
      <point x="-283" y="619" type="line"/>
      <point x="-310" y="619"/>
      <point x="-327" y="646"/>
      <point x="-327" y="691" type="curve" smooth="yes"/>
      <point x="-327" y="747"/>
      <point x="-306" y="772"/>
      <point x="-276" y="772" type="curve" smooth="yes"/>
      <point x="-140" y="772" type="line"/>
      <point x="-140" y="797" type="line"/>
      <point x="-281" y="797" type="line" smooth="yes"/>
      <point x="-320" y="797"/>
      <point x="-351" y="760"/>
      <point x="-351" y="695" type="curve" smooth="yes"/>
      <point x="-351" y="630"/>
      <point x="-324" y="594"/>
      <point x="-277" y="594" type="curve"/>
      <point x="-246" y="649" type="line"/>
      <point x="-235" y="613"/>
      <point x="-217" y="591"/>
    </contour>
  </outline>
</glyph>
<glyph name="phinthu-thai.small" format="2">
  <anchor x="-64" y="-85" name="_bottom"/>
  <anchor x="-64" y="-186" name="bottom"/>
  <outline>
    <contour>
      <point x="-79" y="-209" type="curve" smooth="yes"/>
      <point x="-61" y="-209"/>
      <point x="-50" y="-197"/>
      <point x="-50" y="-174" type="curve" smooth="yes"/>
      <point x="-50" y="-151"/>
      <point x="-61" y="-139"/>
      <point x="-79" y="-139" type="curve" smooth="yes"/>
      <point x="-96" y="-139"/>
      <point x="-108" y="-151"/>
      <point x="-108" y="-174" type="curve" smooth="yes"/>
      <point x="-108" y="-197"/>
      <point x="-97" y="-209"/>
    </contour>
  </outline>
</glyph>
<glyph name="ru-thai.short" format="2">
  <advance width="407"/>
  <anchor x="343" y="-85" name="bottom"/>
  <anchor x="336" y="506" name="top"/>
  <outline>
    <contour>
      <point x="317" y="-103" type="line"/>
      <point x="343" y="-103" type="line"/>
      <point x="343" y="94" type="line"/>
      <point x="317" y="94" type="line"/>
    </contour>
    <component base="thoThung-thai"/>
  </outline>
</glyph>
<glyph name="ru_lakkhangyao-thai" format="2">
  <advance width="641"/>
  <outline>
    <contour>
      <point x="316" y="-180" type="line"/>
      <point x="342" y="-180" type="line"/>
      <point x="342" y="353" type="line" smooth="yes"/>
      <point x="342" y="442"/>
      <point x="383" y="500"/>
      <point x="449" y="500" type="curve" smooth="yes"/>
      <point x="510" y="500"/>
      <point x="551" y="450"/>
      <point x="551" y="356" type="curve" smooth="yes"/>
      <point x="551" y="-180" type="line"/>
      <point x="577" y="-180" type="line"/>
      <point x="577" y="362" type="line" smooth="yes"/>
      <point x="577" y="464"/>
      <point x="528" y="525"/>
      <point x="453" y="525" type="curve" smooth="yes"/>
      <point x="392" y="525"/>
      <point x="346" y="483"/>
      <point x="330" y="412" type="curve"/>
      <point x="328" y="412" type="line"/>
      <point x="312" y="478"/>
      <point x="270" y="525"/>
      <point x="198" y="525" type="curve" smooth="yes"/>
      <point x="106" y="525"/>
      <point x="53" y="454"/>
      <point x="53" y="381" type="curve" smooth="yes"/>
      <point x="53" y="363" type="line"/>
      <point x="133" y="320" type="line"/>
      <point x="133" y="318" type="line"/>
      <point x="94" y="305"/>
      <point x="63" y="275"/>
      <point x="63" y="200" type="curve" smooth="yes"/>
      <point x="63" y="57" type="line" smooth="yes"/>
      <point x="63" y="10"/>
      <point x="89" y="-9"/>
      <point x="118" y="-9" type="curve" smooth="yes"/>
      <point x="130" y="-9"/>
      <point x="145" y="-6"/>
      <point x="156" y="1" type="curve"/>
      <point x="151" y="23" type="line"/>
      <point x="144" y="19"/>
      <point x="131" y="15"/>
      <point x="121" y="15" type="curve" smooth="yes"/>
      <point x="101" y="15"/>
      <point x="89" y="29"/>
      <point x="89" y="63" type="curve" smooth="yes"/>
      <point x="89" y="200" type="line" smooth="yes"/>
      <point x="89" y="268"/>
      <point x="119" y="295"/>
      <point x="155" y="300" type="curve"/>
      <point x="160" y="330" type="line"/>
      <point x="80" y="378" type="line"/>
      <point x="80" y="446"/>
      <point x="126" y="500"/>
      <point x="196" y="500" type="curve" smooth="yes"/>
      <point x="267" y="500"/>
      <point x="316" y="442"/>
      <point x="316" y="351" type="curve" smooth="yes"/>
    </contour>
  </outline>
</glyph>
<glyph name="saraIi-thai.narrow" format="2">
  <anchor x="-141" y="506" name="_top"/>
  <anchor x="-141" y="742" name="top"/>
  <outline>
    <contour>
      <point x="-366" y="606" type="line"/>
      <point x="-141" y="606" type="line"/>
      <point x="-141" y="630" type="line"/>
      <point x="-341" y="630" type="line"/>
      <point x="-366" y="620" type="line"/>
    </contour>
    <contour>
      <point x="-165" y="606" type="line"/>
      <point x="-141" y="606" type="line"/>
      <point x="-141" y="700" type="line"/>
      <point x="-165" y="700" type="line"/>
    </contour>
  </outline>
</glyph>
<glyph name="saraU-thai.small" format="2">
  <anchor x="-64" y="-85" name="_bottom"/>
  <anchor x="-64" y="-225" name="bottom"/>
  <outline>
    <contour>
      <point x="-89" y="-261" type="line"/>
      <point x="-64" y="-261" type="line"/>
      <point x="-64" y="-188" type="line" smooth="yes"/>
      <point x="-64" y="-168"/>
      <point x="-75" y="-154"/>
      <point x="-94" y="-154" type="curve" smooth="yes"/>
      <point x="-101" y="-154"/>
      <point x="-111" y="-155"/>
      <point x="-120" y="-160" type="curve"/>
      <point x="-117" y="-182" type="line"/>
      <point x="-113" y="-180"/>
      <point x="-107" y="-178"/>
      <point x="-103" y="-178" type="curve" smooth="yes"/>
      <point x="-92" y="-178"/>
      <point x="-89" y="-185"/>
      <point x="-89" y="-202" type="curve" smooth="yes"/>
    </contour>
  </outline>
</glyph>
<glyph name="saraUe-thai.narrow" format="2">
  <anchor x="-140" y="506" name="_top"/>
  <anchor x="-168" y="742" name="top"/>
  <outline>
    <contour>
      <point x="-365" y="606" type="line"/>
      <point x="-181" y="606" type="line" smooth="yes"/>
      <point x="-151" y="606"/>
      <point x="-128" y="627"/>
      <point x="-128" y="670" type="curve" smooth="yes"/>
      <point x="-128" y="713"/>
      <point x="-150" y="734"/>
      <point x="-180" y="734" type="curve" smooth="yes"/>
      <point x="-208" y="734"/>
      <point x="-230" y="714"/>
      <point x="-230" y="671" type="curve" smooth="yes"/>
      <point x="-230" y="649"/>
      <point x="-223" y="627"/>
      <point x="-212" y="617" type="curve"/>
      <point x="-208" y="630" type="line"/>
      <point x="-340" y="630" type="line"/>
      <point x="-365" y="620" type="line"/>
    </contour>
    <contour>
      <point x="-179" y="630" type="curve" smooth="yes"/>
      <point x="-197" y="630"/>
      <point x="-209" y="645"/>
      <point x="-209" y="670" type="curve" smooth="yes"/>
      <point x="-209" y="695"/>
      <point x="-197" y="710"/>
      <point x="-180" y="710" type="curve" smooth="yes"/>
      <point x="-162" y="710"/>
      <point x="-150" y="695"/>
      <point x="-150" y="670" type="curve" smooth="yes"/>
      <point x="-150" y="645"/>
      <point x="-162" y="630"/>
    </contour>
  </outline>
</glyph>
<glyph name="saraUee-thai.narrow" format="2">
  <anchor x="-140" y="506" name="_top"/>
  <anchor x="-172" y="742" name="top"/>
  <outline>
    <contour>
      <point x="-366" y="606" type="line"/>
      <point x="-140" y="606" type="line"/>
      <point x="-140" y="630" type="line"/>
      <point x="-341" y="630" type="line"/>
      <point x="-366" y="620" type="line"/>
    </contour>
    <contour>
      <point x="-228" y="624" type="line"/>
      <point x="-205" y="624" type="line"/>
      <point x="-205" y="713" type="line"/>
      <point x="-228" y="713" type="line"/>
    </contour>
    <contour>
      <point x="-163" y="624" type="line"/>
      <point x="-140" y="624" type="line"/>
      <point x="-140" y="713" type="line"/>
      <point x="-163" y="713" type="line"/>
    </contour>
  </outline>
</glyph>
<glyph name="saraUu-thai.small" format="2">
  <anchor x="-64" y="-85" name="_bottom"/>
  <anchor x="-64" y="-225" name="bottom"/>
  <outline>
    <contour>
      <point x="-135" y="-261" type="curve" smooth="yes"/>
      <point x="-88" y="-261"/>
      <point x="-64" y="-244"/>
      <point x="-64" y="-199" type="curve" smooth="yes"/>
      <point x="-64" y="-157" type="line"/>
      <point x="-89" y="-157" type="line"/>
      <point x="-89" y="-203" type="line" smooth="yes"/>
      <point x="-89" y="-228"/>
      <point x="-103" y="-239"/>
      <point x="-135" y="-239" type="curve" smooth="yes"/>
      <point x="-166" y="-239"/>
      <point x="-180" y="-228"/>
      <point x="-180" y="-203" type="curve" smooth="yes"/>
      <point x="-180" y="-192" type="line" smooth="yes"/>
      <point x="-180" y="-166"/>
      <point x="-191" y="-154"/>
      <point x="-210" y="-154" type="curve" smooth="yes"/>
      <point x="-216" y="-154"/>
      <point x="-226" y="-156"/>
      <point x="-232" y="-159" type="curve"/>
      <point x="-229" y="-182" type="line"/>
      <point x="-213" y="-174"/>
      <point x="-205" y="-179"/>
      <point x="-205" y="-196" type="curve" smooth="yes"/>
      <point x="-205" y="-201" type="line" smooth="yes"/>
      <point x="-205" y="-244"/>
      <point x="-181" y="-261"/>
    </contour>
  </outline>
</glyph>
<glyph name="thanthakhat-thai.narrow" format="2">
  <anchor x="-148" y="506" name="_top"/>
  <anchor x="-201" y="683" name="top"/>
  <outline>
    <contour>
      <point x="-284" y="576" type="curve"/>
      <point x="-261" y="581" type="line"/>
      <point x="-265" y="590"/>
      <point x="-267" y="601"/>
      <point x="-267" y="611" type="curve" smooth="yes"/>
      <point x="-267" y="632"/>
      <point x="-259" y="644"/>
      <point x="-237" y="644" type="curve" smooth="yes"/>
      <point x="-139" y="644" type="line"/>
      <point x="-139" y="668" type="line"/>
      <point x="-243" y="668" type="line" smooth="yes"/>
      <point x="-276" y="668"/>
      <point x="-292" y="648"/>
      <point x="-292" y="616" type="curve" smooth="yes"/>
      <point x="-292" y="601"/>
      <point x="-289" y="587"/>
    </contour>
  </outline>
</glyph>
<glyph name="thanthakhat-thai.small" format="2">
  <anchor x="-72" y="742" name="_top"/>
  <anchor x="-72" y="964" name="top"/>
  <outline>
    <contour>
      <point x="-138" y="796" type="curve"/>
      <point x="-115" y="801" type="line"/>
      <point x="-119" y="810"/>
      <point x="-121" y="821"/>
      <point x="-121" y="831" type="curve" smooth="yes"/>
      <point x="-121" y="852"/>
      <point x="-113" y="864"/>
      <point x="-91" y="864" type="curve" smooth="yes"/>
      <point x="-12" y="864" type="line"/>
      <point x="-12" y="888" type="line"/>
      <point x="-97" y="888" type="line" smooth="yes"/>
      <point x="-130" y="888"/>
      <point x="-146" y="868"/>
      <point x="-146" y="836" type="curve" smooth="yes"/>
      <point x="-146" y="821"/>
      <point x="-143" y="807"/>
    </contour>
  </outline>
</glyph>
<glyph name="thoThan-thai.less" format="2">
  <advance width="375"/>
  <anchor x="277" y="0" name="bottom"/>
  <anchor x="317" y="506" name="top"/>
  <outline>
    <contour>
      <point x="114" y="0" type="line"/>
      <point x="141" y="0" type="line" smooth="yes"/>
      <point x="255" y="0"/>
      <point x="311" y="68"/>
      <point x="311" y="259" type="curve" smooth="yes"/>
      <point x="311" y="354"/>
      <point x="299" y="422"/>
      <point x="270" y="465" type="curve"/>
      <point x="248" y="506"/>
      <point x="209" y="525"/>
      <point x="155" y="525" type="curve" smooth="yes"/>
      <point x="104" y="525"/>
      <point x="58" y="501"/>
      <point x="31" y="482" type="curve"/>
      <point x="31" y="454" type="line"/>
      <point x="68" y="482"/>
      <point x="108" y="500"/>
      <point x="150" y="500" type="curve" smooth="yes"/>
      <point x="246" y="500"/>
      <point x="284" y="437"/>
      <point x="284" y="260" type="curve" smooth="yes"/>
      <point x="284" y="78"/>
      <point x="229" y="25"/>
      <point x="150" y="25" type="curve" smooth="yes"/>
      <point x="140" y="25" type="line"/>
      <point x="140" y="283" type="line"/>
      <point x="62" y="283" type="line"/>
      <point x="62" y="261" type="line"/>
      <point x="114" y="261" type="line"/>
    </contour>
    <contour>
      <point x="268" y="452" type="line"/>
      <point x="309" y="465"/>
      <point x="341" y="498"/>
      <point x="341" y="551" type="curve"/>
      <point x="314" y="551" type="line"/>
      <point x="314" y="503"/>
      <point x="286" y="481"/>
      <point x="254" y="470" type="curve"/>
    </contour>
  </outline>
</glyph>
<glyph name="toPatak-thai.short" format="2">
  <advance width="407"/>
  <anchor x="343" y="-85" name="bottom"/>
  <anchor x="336" y="506" name="top"/>
  <outline>
    <contour>
      <point x="56" y="-104" type="line"/>
      <point x="82" y="-104" type="line"/>
      <point x="82" y="-95" type="line" smooth="yes"/>
      <point x="82" y="-59"/>
      <point x="95" y="-34"/>
      <point x="126" y="-34" type="curve" smooth="yes"/>
      <point x="159" y="-34"/>
      <point x="182" y="-67"/>
      <point x="195" y="-104" type="curve"/>
      <point x="210" y="-104" type="line"/>
      <point x="262" y="-45" type="line"/>
      <point x="320" y="-104" type="line"/>
      <point x="343" y="-104" type="line"/>
      <point x="343" y="353" type="line" smooth="yes"/>
      <point x="343" y="464"/>
      <point x="283" y="525"/>
      <point x="199" y="525" type="curve" smooth="yes"/>
      <point x="106" y="525"/>
      <point x="53" y="454"/>
      <point x="53" y="381" type="curve" smooth="yes"/>
      <point x="53" y="363" type="line"/>
      <point x="134" y="320" type="line"/>
      <point x="133" y="318" type="line"/>
      <point x="94" y="305"/>
      <point x="68" y="275"/>
      <point x="68" y="200" type="curve" smooth="yes"/>
      <point x="68" y="61" type="line" smooth="yes"/>
      <point x="68" y="31"/>
      <point x="64" y="18"/>
      <point x="47" y="18" type="curve" smooth="yes"/>
      <point x="39" y="18"/>
      <point x="32" y="21"/>
      <point x="25" y="25" type="curve"/>
      <point x="20" y="2" type="line"/>
      <point x="30" y="-4"/>
      <point x="42" y="-7"/>
      <point x="51" y="-7" type="curve" smooth="yes"/>
      <point x="76" y="-7"/>
      <point x="94" y="10"/>
      <point x="94" y="57" type="curve" smooth="yes"/>
      <point x="94" y="200" type="line" smooth="yes"/>
      <point x="94" y="268"/>
      <point x="119" y="295"/>
      <point x="156" y="300" type="curve"/>
      <point x="160" y="330" type="line"/>
      <point x="80" y="378" type="line"/>
      <point x="80" y="446"/>
      <point x="125" y="500"/>
      <point x="198" y="500" type="curve" smooth="yes"/>
      <point x="269" y="500"/>
      <point x="317" y="450"/>
      <point x="317" y="347" type="curve" smooth="yes"/>
      <point x="317" y="-82" type="line"/>
      <point x="326" y="-78" type="line"/>
      <point x="262" y="-16" type="line"/>
      <point x="206" y="-77" type="line"/>
      <point x="190" y="-40"/>
      <point x="163" y="-10"/>
      <point x="122" y="-10" type="curve" smooth="yes"/>
      <point x="83" y="-10"/>
      <point x="56" y="-42"/>
      <point x="56" y="-91" type="curve" smooth="yes"/>
    </contour>
  </outline>
</glyph>
<glyph name="yoYing-thai.less" format="2">
  <advance width="617"/>
  <anchor x="539" y="0" name="bottom"/>
  <anchor x="553" y="506" name="top"/>
  <outline>
    <contour>
      <point x="424" y="-9" type="curve" smooth="yes"/>
      <point x="504" y="-9"/>
      <point x="553" y="50"/>
      <point x="553" y="146" type="curve" smooth="yes"/>
      <point x="553" y="517" type="line"/>
      <point x="527" y="517" type="line"/>
      <point x="527" y="149" type="line" smooth="yes"/>
      <point x="527" y="59"/>
      <point x="483" y="15"/>
      <point x="424" y="15" type="curve" smooth="yes"/>
      <point x="364" y="15"/>
      <point x="323" y="59"/>
      <point x="323" y="149" type="curve" smooth="yes"/>
      <point x="323" y="353" type="line" smooth="yes"/>
      <point x="323" y="471"/>
      <point x="265" y="525"/>
      <point x="189" y="525" type="curve" smooth="yes"/>
      <point x="105" y="525"/>
      <point x="53" y="460"/>
      <point x="53" y="381" type="curve" smooth="yes"/>
      <point x="53" y="363" type="line"/>
      <point x="133" y="320" type="line"/>
      <point x="133" y="318" type="line"/>
      <point x="94" y="305"/>
      <point x="63" y="275"/>
      <point x="63" y="200" type="curve" smooth="yes"/>
      <point x="63" y="83" type="line" smooth="yes"/>
      <point x="63" y="19"/>
      <point x="94" y="-7"/>
      <point x="135" y="-7" type="curve" smooth="yes"/>
      <point x="150" y="-7"/>
      <point x="164" y="-3"/>
      <point x="178" y="5" type="curve"/>
      <point x="173" y="27" type="line"/>
      <point x="163" y="22"/>
      <point x="149" y="17"/>
      <point x="137" y="17" type="curve" smooth="yes"/>
      <point x="107" y="17"/>
      <point x="89" y="39"/>
      <point x="89" y="84" type="curve" smooth="yes"/>
      <point x="89" y="200" type="line" smooth="yes"/>
      <point x="89" y="268"/>
      <point x="119" y="295"/>
      <point x="155" y="300" type="curve"/>
      <point x="160" y="330" type="line"/>
      <point x="80" y="378" type="line"/>
      <point x="80" y="452"/>
      <point x="123" y="500"/>
      <point x="188" y="500" type="curve" smooth="yes"/>
      <point x="252" y="500"/>
      <point x="297" y="457"/>
      <point x="297" y="347" type="curve" smooth="yes"/>
      <point x="297" y="146" type="line" smooth="yes"/>
      <point x="297" y="50"/>
      <point x="343" y="-9"/>
    </contour>
  </outline>
</glyph>
